<?xml version="1.0" standalone="no"?>
<!DOCTYPE svg PUBLIC "-//W3C//DTD SVG 20010904//EN"
 "http://www.w3.org/TR/2001/REC-SVG-20010904/DTD/svg10.dtd">
<svg version="1.0" xmlns="http://www.w3.org/2000/svg"
 width="3425.000000pt" height="2480.000000pt" viewBox="0 0 3425.000000 2480.000000"
 preserveAspectRatio="xMidYMid meet">
<metadata>
Created by potrace 1.15, written by Peter Selinger 2001-2017
</metadata>
<g transform="translate(0.000000,2480.000000) scale(0.100000,-0.100000)"
fill="#000000" stroke="none">
<path d="M29865 24460 c-6 -10 1 -50 17 -93 9 -23 8 -35 -6 -58 -19 -33 -14
-49 16 -49 11 0 38 -18 60 -39 33 -33 38 -43 29 -59 -13 -25 -5 -32 35 -32 19
0 34 6 38 15 7 20 32 19 40 0 4 -13 19 -15 68 -13 l62 3 11 40 c5 22 23 57 38
77 16 21 26 42 22 48 -8 13 -41 13 -68 -1 -18 -10 -25 -7 -53 26 -38 46 -54
40 -54 -20 0 -27 -8 -58 -21 -79 -22 -37 -27 -40 -53 -30 -21 8 -21 94 0 135
20 40 12 59 -27 59 -21 0 -47 13 -81 40 -53 42 -63 46 -73 30z"/>
<path d="M4144 24159 c-38 -40 -133 -85 -212 -100 -63 -12 -126 -10 -313 11
-80 9 -102 8 -132 -5 -47 -20 -60 -43 -44 -84 7 -20 8 -34 2 -40 -6 -6 -50
-17 -100 -26 -140 -26 -255 -64 -390 -131 -102 -50 -106 -53 -195 -113 -249
-170 -463 -505 -486 -759 -4 -47 -13 -81 -24 -95 -18 -22 -18 -22 -68 -4 -233
84 -478 51 -685 -92 -47 -32 -99 -96 -138 -171 -19 -36 -24 -61 -24 -122 0
-85 14 -116 73 -153 41 -26 48 -49 24 -80 -12 -15 -23 -49 -27 -84 -5 -47 -13
-65 -36 -87 -46 -44 -39 -60 29 -67 88 -9 126 0 177 45 34 30 44 47 47 75 4
47 23 53 43 13 28 -54 89 -74 230 -74 150 -1 154 6 61 98 -86 87 -134 116
-190 116 -58 0 -67 22 -20 50 60 38 67 72 33 160 -12 30 -24 72 -26 93 -3 20
-9 39 -13 42 -12 7 -46 -30 -77 -84 -15 -24 -40 -52 -57 -62 -17 -10 -42 -36
-56 -56 -14 -21 -34 -39 -44 -41 -40 -8 -105 89 -106 156 0 44 35 140 62 169
35 38 64 30 87 -23 13 -28 26 -44 35 -42 8 2 29 26 48 53 43 64 134 113 241
126 66 9 359 -5 380 -18 4 -2 7 -27 7 -55 0 -72 20 -180 36 -199 8 -8 14 -31
14 -50 0 -35 34 -125 87 -235 83 -169 256 -362 428 -476 55 -36 108 -67 118
-69 10 -2 19 -8 20 -14 5 -26 -50 -10 -172 52 -178 90 -181 92 -211 120 -13
12 -28 23 -32 23 -11 0 -139 109 -192 164 -70 73 -142 171 -170 231 -19 39
-27 76 -32 154 -7 98 -8 104 -39 134 -55 55 -146 127 -160 127 -19 0 -23 -71
-10 -160 16 -103 23 -116 105 -195 39 -39 108 -115 152 -170 94 -117 192 -213
300 -293 43 -31 76 -61 75 -67 -2 -5 -17 -12 -33 -15 -28 -6 -29 -6 -7 -18 12
-7 31 -12 43 -12 23 0 180 -51 245 -79 22 -10 48 -21 58 -24 9 -4 17 -11 17
-17 0 -14 -32 -13 -82 4 -243 80 -575 115 -793 82 -178 -27 -205 -32 -217 -44
-7 -7 -20 -12 -29 -12 -15 0 -57 -16 -149 -57 -39 -18 -135 -81 -194 -127 -41
-33 -164 -175 -193 -224 -67 -111 -205 -256 -272 -286 -45 -21 -58 -56 -20
-56 37 0 158 41 195 67 46 30 64 24 64 -22 0 -48 42 -148 81 -193 18 -20 54
-52 80 -70 l49 -33 0 -1319 c0 -725 3 -1325 6 -1333 3 -8 -8 -30 -25 -50 -42
-47 -41 -86 0 -121 35 -30 59 -28 96 7 36 32 37 52 3 98 l-30 42 0 1334 0
1335 -49 55 c-96 108 -141 220 -141 354 0 124 39 230 119 321 50 57 152 138
206 166 133 67 185 85 185 62 0 -5 -4 -10 -9 -10 -31 0 -185 -118 -244 -187
-58 -67 -90 -128 -111 -210 -19 -74 -19 -73 -2 -73 8 0 29 26 46 58 32 60 143
186 173 196 25 8 22 -32 -5 -61 -20 -22 -20 -24 -4 -42 9 -10 19 -33 21 -51 3
-18 7 -35 9 -38 9 -9 37 21 51 55 12 28 19 33 48 33 19 0 40 -7 47 -15 15 -18
110 -21 141 -5 26 14 25 50 -1 50 -11 0 -34 13 -51 28 -29 26 -32 34 -32 85 0
70 34 125 93 152 57 26 67 11 27 -38 -81 -100 -83 -167 -4 -167 21 0 38 8 52
25 20 26 20 26 65 10 55 -20 103 -12 137 21 29 29 23 44 -17 44 -32 0 -70 39
-70 72 0 29 54 78 85 78 14 0 42 7 62 15 42 18 107 19 263 4 161 -15 182 -20
199 -51 15 -26 14 -28 -32 -77 -26 -27 -47 -57 -47 -65 0 -8 -3 -21 -6 -30
-11 -27 12 -18 57 25 69 65 120 84 216 83 72 0 87 -4 120 -27 32 -22 50 -27
102 -27 70 0 116 21 145 65 21 32 31 31 73 -5 40 -36 79 -39 117 -9 19 15 36
20 59 16 74 -11 309 31 457 82 94 33 67 57 -30 27 -93 -29 -261 -55 -363 -56
-66 0 -69 1 -101 36 -31 33 -37 36 -77 31 -24 -2 -54 -8 -66 -12 -19 -6 -25
-1 -45 41 -32 69 -84 94 -191 94 -93 0 -140 18 -168 64 -10 17 -23 37 -29 44
-18 20 -33 3 -26 -31 3 -16 2 -35 -3 -41 -5 -6 -11 -22 -13 -36 -1 -14 -10
-26 -18 -28 -22 -4 -216 163 -282 243 -92 112 -172 255 -219 394 -21 63 -21
65 -3 78 14 11 42 14 109 11 80 -4 98 -9 160 -41 39 -20 91 -53 117 -74 220
-179 302 -240 348 -259 274 -115 480 -125 755 -37 142 45 225 85 345 165 61
41 215 192 234 229 10 20 20 24 65 26 43 1 52 -1 47 -14 -3 -8 -9 -45 -12 -81
-4 -51 -1 -80 14 -121 31 -91 42 -77 42 52 0 121 13 179 64 275 14 26 37 74
51 107 l27 59 -41 36 c-38 32 -41 39 -41 83 0 26 -5 56 -12 67 -10 15 -10 26
0 53 7 18 12 58 12 89 0 64 17 89 43 60 8 -9 18 -29 22 -44 9 -33 30 -54 37
-36 8 21 -17 104 -43 143 -30 45 -97 85 -141 85 -49 -1 -112 -33 -144 -75 -25
-33 -28 -46 -29 -114 0 -48 7 -97 18 -132 18 -54 18 -58 2 -83 -21 -31 -14
-58 12 -49 10 3 30 19 45 35 22 23 29 42 34 92 6 59 5 65 -15 76 -19 9 -22 19
-19 57 3 43 5 46 43 59 54 19 71 18 95 -6 13 -13 20 -33 20 -60 0 -33 -10 -53
-67 -127 -74 -97 -72 -88 -61 -253 8 -140 -165 -354 -374 -461 -152 -77 -323
-96 -421 -47 -36 18 -81 76 -88 114 -5 24 -51 31 -69 10 -7 -9 -23 -16 -35
-16 -36 0 -49 -24 -39 -72 8 -38 12 -42 64 -60 30 -11 90 -27 132 -36 67 -14
88 -14 157 -3 44 7 93 10 108 6 l28 -7 -25 -10 c-14 -6 -38 -16 -55 -23 -55
-24 -209 -45 -325 -45 -113 0 -238 21 -320 52 -194 74 -340 247 -390 460 -16
69 -2 153 33 200 18 25 19 30 7 38 -10 6 -24 3 -43 -9 -58 -36 -116 -91 -119
-113 -5 -38 -26 -30 -61 24 -37 58 -103 117 -161 145 -49 23 -59 9 -53 -75 3
-34 0 -65 -5 -68 -5 -3 -34 7 -64 23 -52 27 -54 30 -54 68 0 51 29 154 66 231
76 158 206 293 359 372 98 50 126 61 210 80 53 13 80 24 80 33 0 11 -24 15
-108 17 -122 3 -216 -17 -320 -68 -51 -25 -59 -27 -64 -13 -5 11 14 36 63 82
129 123 244 186 478 261 62 20 240 30 345 20 72 -7 138 -23 264 -65 199 -65
260 -71 242 -23 -14 35 -207 110 -315 122 -126 15 -83 43 48 32 87 -7 151 -24
277 -73 208 -81 360 -210 463 -393 40 -71 67 -100 95 -100 48 0 61 51 30 118
-58 128 -176 265 -293 341 -62 40 -184 101 -203 101 -30 1 -132 39 -132 50 0
7 29 22 65 34 122 40 175 81 211 160 10 20 9 30 -5 51 -21 32 -26 32 -62 -6z
m-1725 -1484 c79 -36 81 -37 98 -66 26 -43 12 -59 -51 -59 -30 0 -58 -4 -61
-10 -3 -5 -17 -10 -29 -10 -19 0 -25 7 -30 38 -12 74 -7 132 12 132 3 0 30
-11 61 -25z"/>
<path d="M29797 24173 c-4 -4 -4 -21 -1 -39 5 -27 1 -37 -21 -58 -36 -33 -29
-57 20 -70 29 -8 41 -18 45 -35 9 -38 27 -36 53 6 14 21 40 53 60 71 30 30 33
36 23 57 -7 16 -23 26 -45 30 -19 4 -52 15 -73 26 -40 21 -51 23 -61 12z"/>
<path d="M30042 24107 l-22 -24 57 -60 c32 -34 83 -78 113 -98 78 -52 83 -65
23 -65 -68 -1 -190 -25 -243 -48 -47 -20 -130 -101 -130 -126 0 -8 -3 -21 -6
-30 -14 -36 25 -24 76 23 106 97 211 133 399 136 86 2 137 7 139 14 2 5 -9 13
-25 17 -133 32 -333 187 -333 258 0 32 -20 33 -48 3z"/>
<path d="M30484 24025 c-12 -31 39 -188 73 -227 23 -26 9 -48 -31 -48 -47 0
-143 -36 -188 -72 -20 -15 -53 -53 -73 -83 l-36 -55 -1343 0 -1343 0 -23 25
c-30 32 -81 34 -110 3 -31 -33 -30 -70 3 -105 27 -30 57 -29 103 2 l37 25
1333 0 1333 0 50 44 c62 55 150 107 218 129 74 24 223 23 296 -2 143 -49 295
-201 366 -366 12 -27 26 -58 31 -67 12 -22 13 -58 1 -58 -5 0 -12 8 -15 18
-22 58 -109 176 -168 227 -61 53 -133 92 -209 115 -79 24 -89 24 -89 5 0 -8
24 -27 53 -41 28 -15 68 -41 87 -58 20 -17 48 -40 64 -51 24 -17 56 -63 56
-80 0 -14 -46 -3 -67 17 -21 20 -24 20 -41 5 -10 -10 -29 -17 -43 -17 -13 0
-30 -4 -38 -9 -20 -13 0 -37 45 -51 31 -10 34 -15 34 -50 0 -21 -6 -43 -15
-50 -21 -18 -21 -123 1 -144 21 -22 44 -20 44 4 0 11 13 34 29 52 26 29 34 32
84 32 66 0 119 -30 148 -86 37 -71 17 -77 -55 -18 -26 22 -56 40 -66 40 -10 0
-25 3 -33 6 -20 7 -47 -23 -47 -54 0 -14 11 -38 25 -52 24 -25 24 -27 10 -74
-15 -51 -12 -86 11 -123 21 -34 54 -30 54 5 0 34 37 72 70 72 34 0 80 -47 80
-82 0 -15 7 -46 17 -69 13 -34 15 -62 9 -173 -4 -72 -12 -162 -19 -201 -10
-59 -16 -72 -39 -85 -27 -14 -29 -14 -70 27 -41 40 -102 72 -115 60 -3 -4 15
-29 40 -57 64 -72 91 -145 84 -234 -5 -52 -12 -78 -33 -107 -24 -35 -26 -45
-22 -109 3 -66 6 -72 46 -113 23 -23 42 -46 42 -51 0 -5 -13 -24 -30 -43 -36
-40 -39 -79 -9 -117 15 -19 20 -36 16 -59 -7 -47 20 -229 49 -332 14 -49 30
-108 36 -130 6 -22 17 -45 24 -51 8 -6 14 -23 14 -37 0 -30 17 -44 33 -28 8 8
5 18 -10 39 -11 15 -23 43 -26 62 -3 19 -10 53 -16 75 -24 95 -40 197 -46 297
l-6 108 34 32 c43 41 50 68 31 120 -8 22 -14 42 -14 44 0 2 23 15 51 29 67 35
88 79 89 190 0 95 17 134 75 174 54 36 56 52 8 50 -53 -1 -107 14 -111 31 -4
22 163 216 243 282 113 92 264 177 394 220 62 21 64 21 77 3 9 -12 14 -47 14
-100 0 -74 -3 -88 -39 -161 -22 -43 -57 -100 -78 -126 -135 -165 -225 -285
-244 -326 -12 -26 -25 -55 -30 -65 -39 -75 -79 -264 -79 -367 0 -110 43 -335
77 -400 7 -14 13 -30 13 -36 0 -21 72 -158 122 -232 49 -72 172 -205 235 -253
27 -20 32 -31 34 -69 2 -26 -2 -44 -7 -43 -6 1 -44 5 -85 8 -59 5 -85 3 -128
-13 -92 -31 -77 -42 57 -42 134 0 145 -3 304 -79 59 -28 116 -51 126 -51 11 0
32 16 46 35 25 32 31 35 78 35 33 0 58 6 69 16 16 15 20 15 50 0 18 -9 57 -16
88 -16 73 0 92 -11 67 -39 -10 -11 -31 -23 -46 -26 -16 -3 -34 -13 -41 -21
-10 -12 -6 -14 25 -14 102 0 206 93 206 184 0 50 -33 119 -68 142 -15 10 -51
23 -79 30 -46 11 -63 10 -129 -7 -41 -10 -79 -21 -83 -23 -4 -3 -20 2 -35 10
-16 7 -35 14 -42 14 -25 0 -15 -38 18 -69 25 -23 45 -31 91 -36 54 -7 62 -5
77 15 13 17 24 21 59 18 40 -3 44 -6 57 -43 19 -55 18 -71 -7 -96 -38 -38 -92
-23 -195 56 l-89 67 -60 -6 c-33 -3 -74 -8 -92 -12 -37 -7 -129 30 -208 85
-159 110 -280 292 -320 481 -15 67 -6 188 15 230 20 39 71 79 118 94 26 8 28
32 8 73 -8 15 -17 36 -20 46 -8 24 -32 32 -74 21 -31 -8 -37 -15 -54 -64 -11
-30 -27 -92 -35 -138 -15 -74 -15 -89 -1 -153 14 -67 14 -119 -1 -119 -15 0
-43 81 -61 179 -26 136 -26 296 0 411 19 88 39 148 55 171 6 8 19 32 30 54 11
22 54 74 96 116 56 58 94 86 151 113 84 40 171 66 222 66 45 0 124 -25 148
-46 16 -15 21 -16 28 -4 17 27 -81 156 -123 162 -38 6 -29 26 27 62 30 19 72
59 94 88 84 115 82 131 -17 126 -39 -1 -73 1 -77 5 -4 3 6 31 22 62 28 54 30
55 72 55 64 0 144 -25 251 -78 203 -100 372 -315 426 -542 25 -105 24 -102 38
-98 8 3 13 38 15 114 4 125 -12 200 -63 306 -38 78 -33 107 12 68 118 -105
208 -239 271 -405 59 -155 65 -188 65 -360 0 -176 -4 -197 -83 -429 -50 -151
-53 -208 -7 -190 33 12 109 204 122 304 9 72 14 92 26 85 27 -17 -7 -263 -51
-370 -103 -247 -216 -384 -402 -488 -104 -59 -129 -94 -92 -131 22 -23 57 -20
117 10 143 73 249 165 326 284 40 62 101 184 101 203 1 31 39 132 51 135 10 2
21 -20 33 -65 45 -155 162 -258 225 -197 12 11 9 19 -20 51 -48 53 -77 117
-97 211 -15 75 -15 89 3 235 15 129 16 163 6 197 -15 52 -49 75 -84 59 -44
-20 -54 -8 -72 98 -18 105 -38 180 -61 226 -8 16 -14 34 -14 41 0 7 -13 40
-30 74 -16 34 -30 64 -30 67 0 2 -22 42 -50 87 -194 324 -531 552 -865 584
-65 7 -73 22 -48 96 31 89 43 158 43 237 0 203 -100 435 -226 524 -79 55 -150
80 -221 75 -69 -4 -105 -24 -138 -76 -27 -41 -41 -46 -79 -23 -17 10 -55 22
-84 26 -38 5 -63 15 -87 36 -56 50 -65 42 -65 -56 0 -96 11 -128 60 -169 21
-17 43 -26 66 -26 44 0 46 -24 3 -45 -46 -24 -70 -90 -77 -207 -5 -108 1 -148
23 -148 19 0 138 119 170 170 14 23 25 57 27 86 4 59 19 66 47 21 12 -19 35
-41 53 -48 28 -11 38 -10 92 10 34 13 81 26 106 29 25 4 45 12 45 19 0 12 -88
83 -103 83 -5 0 -22 18 -36 39 -15 22 -45 51 -67 65 -46 31 -49 53 -11 88 65
61 143 74 229 37 103 -44 121 -91 48 -127 -61 -30 -60 -36 15 -85 63 -41 106
-126 122 -242 12 -84 -7 -366 -26 -377 -6 -4 -34 -8 -62 -8 -65 0 -163 -19
-189 -37 -11 -7 -33 -13 -50 -13 -60 0 -242 -84 -370 -170 -111 -75 -257 -224
-338 -347 -37 -56 -67 -108 -67 -117 0 -9 -7 -16 -15 -16 -27 0 -16 34 53 169
84 167 94 185 102 191 3 3 33 41 65 85 105 143 296 310 394 343 19 7 79 15
134 19 99 6 101 7 133 42 79 86 124 143 124 155 0 21 -43 27 -128 20 -107 -10
-150 -31 -229 -114 -37 -40 -108 -104 -158 -143 -112 -87 -222 -200 -300 -306
-33 -44 -64 -79 -70 -78 -5 2 -11 16 -13 30 -4 31 -22 27 -22 -5 0 -23 -60
-206 -90 -273 -9 -22 -20 -48 -23 -57 -4 -10 -12 -18 -18 -18 -14 0 -10 22 26
155 15 55 30 123 35 150 4 28 13 70 19 95 19 78 25 335 11 450 -16 132 -36
230 -49 243 -6 6 -11 18 -11 27 0 16 -43 126 -54 137 -3 3 -6 12 -6 18 0 27
-109 175 -178 243 -65 64 -166 143 -260 204 -55 36 -173 161 -197 209 -26 50
-41 60 -51 34z m1801 -1415 c4 -6 -5 -35 -19 -65 -14 -29 -26 -58 -26 -64 0
-16 -58 -53 -78 -49 -13 2 -19 17 -24 63 -3 33 -9 72 -13 87 -6 21 -3 27 12
31 35 9 142 7 148 -3z"/>
<path d="M7429 23655 l-25 -26 -1346 -2 c-741 -1 -1350 -6 -1354 -10 -5 -4 -3
-16 2 -25 176 -282 241 -631 167 -892 -18 -65 -77 -186 -104 -216 -37 -40 -20
-64 47 -64 32 0 34 -2 34 -33 0 -71 -147 -265 -280 -369 -147 -115 -302 -197
-435 -229 -152 -38 -268 -36 -359 5 -33 14 -61 24 -64 22 -12 -13 13 -40 69
-75 83 -53 163 -68 264 -51 62 11 77 10 103 -2 21 -11 35 -12 48 -5 45 24 132
83 168 115 28 25 41 31 49 23 17 -17 -3 -44 -39 -53 -24 -6 -36 -20 -59 -67
-24 -51 -27 -68 -22 -115 7 -67 41 -124 63 -105 8 6 14 21 14 33 0 33 23 97
50 141 14 23 30 48 35 57 19 32 71 104 172 241 188 252 246 347 236 386 -7 27
12 28 34 1 22 -25 27 -25 63 2 39 28 55 14 63 -53 9 -76 50 -155 110 -212 84
-79 171 -110 114 -40 -49 60 -65 97 -106 253 -12 43 -26 147 -50 375 -18 157
-48 308 -91 452 -23 76 -108 257 -148 315 -69 102 -84 127 -77 137 4 8 405 11
1317 11 l1311 0 33 -25 c43 -33 74 -32 107 3 34 36 34 61 -1 95 -36 35 -79 36
-113 2z"/>
<path d="M3268 23503 c-16 -42 -13 -209 6 -268 9 -27 16 -58 16 -67 0 -23 -31
-23 -72 -2 -47 24 -59 5 -29 -51 26 -50 23 -61 -22 -73 -46 -12 -45 -38 3 -96
39 -47 47 -75 19 -67 -34 9 -44 5 -41 -14 1 -11 6 -45 11 -75 10 -65 1 -82
-40 -73 -43 8 -97 -5 -109 -27 -9 -17 -1 -30 57 -88 37 -37 83 -74 101 -81
l33 -14 -6 -62 c-11 -102 12 -135 54 -76 12 16 53 52 91 81 38 29 79 65 91 81
23 33 36 36 55 12 18 -24 17 -43 -2 -64 -27 -30 -11 -47 53 -55 32 -4 75 -13
97 -20 82 -29 216 -10 322 44 78 41 166 151 197 249 22 68 23 259 2 287 -8 11
-15 30 -15 42 0 37 -59 136 -116 194 -30 31 -54 61 -54 67 0 7 21 15 48 18 26
4 65 13 87 21 48 19 115 81 115 107 0 18 -5 19 -66 14 -37 -4 -77 -13 -90 -22
-33 -22 -46 -18 -69 17 -33 51 -48 56 -89 24 -43 -32 -136 -51 -213 -41 -56 7
-85 -1 -62 -16 8 -5 24 -9 36 -9 41 0 183 -67 252 -119 78 -59 164 -170 186
-242 4 -13 14 -32 22 -41 13 -14 15 -40 11 -140 -5 -117 -7 -126 -39 -187 -19
-34 -48 -79 -65 -100 -43 -50 -130 -100 -204 -117 -55 -13 -68 -12 -117 2 -31
9 -67 27 -81 41 -34 34 -17 48 34 27 54 -23 199 -14 227 14 16 16 17 23 8 41
-7 11 -23 28 -36 37 -31 21 -32 41 -1 73 31 32 109 189 101 201 -12 19 -58 10
-105 -19 -27 -16 -51 -27 -54 -24 -3 4 -6 32 -6 64 0 66 -11 104 -34 112 -22
9 -37 1 -69 -39 -24 -28 -29 -45 -34 -110 -8 -102 -40 -134 -71 -70 -12 24
-10 34 31 119 52 108 62 152 47 207 -11 41 -34 52 -57 29 -6 -6 -21 -9 -34 -7
-20 2 -25 10 -30 46 -9 67 -25 74 -64 27 -42 -50 -51 -42 -65 52 -15 110 -85
253 -123 253 -10 0 -22 -12 -29 -27z m117 -370 c3 -16 10 -42 15 -59 6 -17 10
-49 10 -72 0 -38 13 -62 28 -48 3 4 8 25 11 48 3 23 12 43 19 46 9 3 12 -16
12 -72 0 -58 3 -76 14 -76 8 0 17 11 20 25 4 14 11 25 17 25 7 0 8 -23 3 -69
-7 -74 2 -102 43 -134 28 -22 29 -33 6 -41 -10 -3 -26 -11 -35 -18 -14 -10
-21 -9 -37 7 -24 21 -27 19 -55 -31 -19 -32 -26 -37 -67 -40 -40 -3 -51 1 -75
24 l-29 27 39 3 c44 4 86 27 86 49 0 25 -37 87 -74 122 -20 19 -36 39 -36 43
0 15 22 8 52 -17 34 -28 50 -32 41 -10 -3 9 -6 48 -7 88 -1 40 -9 95 -17 122
-15 51 -14 85 2 85 5 0 11 -12 14 -27z"/>
<path d="M31356 23422 c-13 -22 -17 -146 -7 -207 13 -72 31 -117 62 -150 16
-18 17 -31 8 -155 -5 -74 -16 -167 -24 -207 -8 -40 -15 -83 -15 -96 0 -14 -7
-41 -15 -60 -8 -20 -15 -48 -15 -63 0 -39 24 -24 34 22 4 21 15 56 22 77 8 20
14 51 14 67 0 16 5 41 11 57 15 39 40 200 47 314 4 58 12 103 21 113 9 10 14
42 15 85 0 80 -20 121 -59 121 -18 0 -31 11 -51 45 -25 44 -38 53 -48 37z"/>
<path d="M32193 21896 c-34 -34 -69 -79 -79 -99 l-17 -36 -71 5 c-39 3 -77 1
-84 -4 -17 -12 -6 -36 22 -51 13 -7 46 -45 75 -85 28 -40 65 -83 81 -95 37
-26 38 -43 5 -61 -21 -11 -27 -11 -43 3 -28 25 -51 21 -57 -10 -3 -16 -15 -65
-25 -111 -24 -100 -25 -149 -5 -227 41 -157 134 -259 282 -311 83 -29 255 -35
289 -9 10 8 31 15 45 15 43 0 140 58 207 123 69 69 81 67 82 -8 1 -75 76 -195
123 -195 18 0 19 6 15 65 -3 36 -13 76 -22 90 -23 34 -20 47 16 70 52 33 56
48 24 95 -33 50 -48 133 -40 218 7 69 -10 90 -21 25 -4 -21 -13 -51 -20 -68
-7 -16 -21 -50 -32 -75 -40 -98 -144 -215 -231 -260 -23 -12 -45 -26 -48 -31
-3 -5 -13 -9 -23 -9 -10 0 -29 -8 -42 -19 -21 -16 -40 -18 -144 -17 -91 2
-127 6 -150 19 -16 9 -33 17 -38 17 -4 0 -31 16 -61 36 -114 75 -190 235 -162
342 15 56 29 84 51 102 27 22 35 -1 18 -52 -20 -61 -10 -187 17 -220 17 -21
18 -21 43 -5 15 9 31 26 37 37 14 26 38 25 67 -2 28 -26 194 -108 206 -101 15
9 6 59 -18 98 -36 60 -34 65 34 65 69 0 106 11 115 35 8 21 -1 36 -42 70 -28
23 -45 29 -105 33 -77 5 -97 14 -97 43 0 49 70 44 162 -12 55 -33 135 -50 185
-39 47 11 48 14 33 59 -15 48 -8 61 34 61 18 0 41 7 52 15 18 15 18 16 -21 50
-49 42 -42 53 46 65 121 17 259 85 259 127 0 18 -7 23 -37 28 -21 3 -54 10
-73 14 -36 8 -153 -8 -203 -28 -64 -25 -86 0 -52 59 30 53 6 66 -54 29 -41
-25 -51 -22 -65 21 -6 20 -19 36 -29 38 -10 2 -42 -15 -71 -37 -29 -23 -56
-41 -61 -41 -4 0 -4 16 0 36 6 36 6 36 -22 28 -15 -5 -55 -8 -87 -9 l-59 0 -1
61 c-1 60 -16 95 -40 93 -6 0 -39 -29 -73 -63z m79 -260 c-4 -37 22 -85 46
-86 24 0 87 38 121 74 19 20 39 36 43 36 15 0 8 -27 -11 -44 -10 -10 -21 -26
-24 -36 -4 -16 -1 -17 19 -10 13 5 43 7 67 4 29 -4 65 1 114 15 66 20 103 20
103 1 0 -10 -78 -30 -140 -37 -25 -2 -51 -6 -59 -9 -23 -8 3 -26 45 -33 21 -3
39 -12 42 -19 3 -9 -16 -12 -72 -12 -78 0 -98 -12 -51 -30 47 -18 28 -31 -34
-24 -77 8 -103 1 -140 -38 l-30 -32 -12 27 c-7 15 -16 27 -21 27 -14 0 -9 22
9 43 20 21 18 23 -47 60 -26 14 -30 20 -21 31 9 10 9 20 0 39 -10 22 -8 30 10
56 30 42 48 40 43 -3z"/>
<path d="M1683 21921 c-43 -11 -63 -28 -63 -55 0 -22 -36 -55 -73 -69 -29 -11
-15 -31 29 -40 96 -21 264 12 319 63 18 17 30 18 150 9 72 -5 163 -16 204 -24
40 -8 86 -15 101 -15 15 0 41 -7 56 -15 36 -19 97 -20 92 -2 -3 6 -22 16 -44
21 -21 4 -56 15 -77 22 -20 8 -49 14 -64 14 -14 0 -49 7 -77 14 -71 21 -249
46 -319 46 -32 0 -70 6 -85 14 -36 19 -109 27 -149 17z"/>
<path d="M17460 21850 c0 -5 -17 -12 -37 -15 -21 -3 -53 -10 -71 -16 -47 -15
-195 -28 -432 -39 -168 -7 -216 -12 -265 -30 -35 -12 -108 -25 -174 -31 -74
-7 -127 -17 -150 -29 -39 -19 -134 -40 -185 -40 -17 0 -55 -11 -84 -25 -29
-13 -86 -29 -126 -34 -47 -5 -90 -18 -117 -34 -24 -14 -69 -28 -100 -32 -36
-4 -69 -15 -89 -30 -18 -13 -54 -26 -83 -30 -29 -4 -75 -20 -103 -36 -28 -16
-61 -29 -74 -29 -12 0 -46 -13 -74 -29 -28 -16 -67 -32 -87 -35 -21 -4 -49
-16 -64 -27 -14 -12 -46 -27 -71 -35 -25 -7 -57 -22 -73 -33 -15 -11 -40 -23
-57 -27 -16 -3 -50 -19 -75 -35 -25 -16 -53 -29 -61 -29 -8 0 -33 -13 -54 -28
-21 -16 -55 -34 -74 -40 -19 -7 -43 -21 -55 -31 -11 -10 -37 -24 -57 -30 -20
-7 -42 -19 -50 -28 -7 -9 -32 -24 -56 -34 -24 -11 -56 -28 -71 -40 -42 -33
-134 -89 -146 -89 -7 0 -22 -12 -36 -26 -13 -14 -41 -36 -62 -47 -21 -12 -52
-30 -69 -39 -17 -9 -40 -25 -52 -36 -32 -30 -193 -149 -218 -163 -13 -6 -32
-22 -43 -34 -11 -13 -81 -73 -155 -135 -211 -175 -235 -196 -379 -341 -142
-141 -220 -227 -358 -395 -44 -55 -99 -118 -121 -140 -21 -23 -61 -74 -87
-115 -26 -41 -56 -83 -66 -94 -48 -54 -78 -93 -93 -122 -25 -49 -78 -127 -93
-136 -8 -5 -25 -32 -39 -60 -34 -72 -129 -226 -159 -260 -14 -15 -25 -38 -25
-51 0 -14 -11 -38 -25 -54 -14 -17 -31 -48 -39 -69 -7 -21 -25 -56 -40 -77
-14 -21 -26 -46 -26 -55 0 -10 -11 -32 -25 -51 -14 -19 -30 -53 -36 -75 -6
-22 -20 -50 -31 -62 -11 -11 -24 -39 -29 -61 -5 -23 -20 -57 -33 -76 -13 -19
-27 -55 -30 -80 -4 -25 -18 -61 -32 -81 -13 -20 -29 -57 -34 -82 -6 -25 -19
-58 -30 -73 -10 -15 -23 -54 -29 -87 -5 -34 -21 -83 -34 -109 -13 -27 -28 -71
-32 -99 -4 -27 -17 -70 -30 -95 -13 -26 -28 -81 -34 -124 -6 -43 -20 -99 -32
-125 -11 -25 -24 -85 -29 -132 -6 -51 -19 -107 -34 -140 -18 -41 -25 -79 -30
-159 -4 -58 -16 -148 -27 -200 -11 -52 -25 -140 -29 -195 -14 -155 -22 -866
-13 -1102 6 -167 5 -214 -4 -218 -7 -2 -13 -9 -13 -14 0 -6 7 -8 15 -5 18 7
20 -7 3 -24 -12 -12 1 -143 27 -272 8 -36 17 -101 21 -145 4 -44 20 -120 37
-170 16 -49 30 -98 29 -107 0 -10 3 -18 9 -18 5 0 9 -5 9 -11 0 -5 -5 -7 -11
-3 -9 5 -10 -1 -5 -21 4 -15 10 -40 13 -56 4 -19 12 -29 23 -29 22 0 35 -39
44 -123 4 -32 17 -80 30 -105 13 -26 27 -70 31 -97 4 -28 18 -72 31 -98 14
-27 30 -74 35 -105 6 -31 20 -72 31 -91 12 -18 25 -52 29 -76 4 -23 19 -58 32
-77 13 -20 29 -60 36 -91 6 -30 19 -61 27 -68 8 -6 22 -37 30 -68 9 -31 27
-69 40 -84 13 -16 24 -39 24 -51 0 -12 13 -42 29 -67 16 -24 32 -58 35 -75 4
-18 16 -40 26 -49 11 -10 26 -39 35 -66 9 -27 25 -54 35 -59 9 -5 22 -29 29
-54 6 -24 20 -55 31 -68 20 -22 108 -164 149 -239 11 -20 17 -39 14 -43 -4 -3
-1 -6 5 -6 7 0 12 -5 12 -10 0 -6 13 -24 29 -40 16 -17 34 -50 40 -73 12 -46
24 -66 91 -152 51 -65 76 -99 105 -141 10 -16 44 -58 75 -94 31 -36 67 -81 82
-100 85 -115 335 -383 349 -375 5 4 9 3 8 -2 -4 -18 13 -41 27 -36 7 3 17 -2
20 -11 3 -9 9 -16 13 -16 14 0 93 -81 95 -98 2 -9 9 -17 17 -17 21 0 140 -106
132 -118 -3 -6 -1 -7 5 -3 11 6 232 -168 274 -215 9 -11 41 -36 70 -56 98 -66
198 -144 198 -153 0 -5 11 -12 25 -16 14 -3 34 -17 44 -30 10 -13 24 -24 31
-24 24 0 69 -34 72 -54 4 -25 49 -51 60 -33 9 15 51 -21 44 -39 -2 -6 7 -17
20 -23 31 -14 37 -14 29 -1 -9 15 8 12 33 -6 12 -8 21 -23 20 -32 -2 -12 5
-18 27 -20 16 -2 35 -12 43 -23 13 -18 137 -85 126 -68 -2 4 0 10 6 14 5 3 11
1 11 -4 1 -6 2 -17 3 -23 0 -8 21 -15 49 -19 27 -3 51 -9 55 -15 10 -13 68
-44 83 -44 7 0 33 -13 58 -29 25 -16 59 -32 75 -35 17 -4 42 -16 58 -27 15
-11 49 -26 76 -34 27 -8 57 -24 66 -34 10 -11 37 -23 59 -26 23 -4 59 -18 79
-31 20 -13 59 -29 85 -34 26 -6 66 -21 88 -34 22 -13 60 -26 85 -30 25 -4 63
-18 86 -31 23 -13 69 -29 103 -34 34 -6 78 -20 97 -32 20 -12 64 -25 106 -30
39 -5 91 -18 115 -30 24 -11 76 -25 116 -30 99 -12 126 -19 168 -40 24 -12 78
-22 155 -28 74 -7 142 -19 179 -32 50 -19 93 -24 260 -30 227 -9 379 -23 427
-38 18 -6 50 -13 71 -16 20 -3 37 -10 37 -15 0 -6 74 -10 185 -10 111 0 185 4
185 10 0 5 17 12 38 15 20 4 51 11 67 16 47 14 219 29 440 38 161 7 213 13
265 30 36 12 117 26 180 32 70 7 129 18 150 29 41 21 126 40 178 40 20 0 61
11 90 25 29 13 86 29 126 34 47 5 84 16 102 29 16 12 58 26 94 32 36 6 84 22
107 36 23 13 64 27 90 30 26 4 64 17 84 31 20 13 54 26 75 30 22 3 62 18 89
33 28 15 67 31 87 34 21 4 50 17 66 31 15 13 44 26 64 30 20 4 51 18 69 31 18
13 37 24 43 24 13 0 193 88 226 110 14 10 36 21 50 25 14 4 39 18 55 30 17 12
45 27 63 33 19 6 47 23 64 37 16 14 36 25 43 25 7 0 26 11 42 24 15 13 44 31
63 41 19 10 48 28 63 41 16 13 36 24 46 24 10 0 26 9 36 21 21 23 133 99 146
99 4 0 28 17 52 38 24 20 63 51 86 67 24 17 58 42 76 58 18 15 35 27 39 27 6
0 333 277 445 378 121 109 254 248 402 422 82 96 175 203 207 238 31 35 65 78
75 95 9 18 32 51 50 74 72 94 121 162 168 236 28 42 54 77 58 77 5 0 16 19 26
43 9 23 24 50 33 60 20 22 64 97 88 147 9 19 26 46 39 60 13 14 28 44 35 68 6
24 17 45 25 48 8 3 22 27 31 52 10 26 26 57 36 68 11 12 25 42 33 68 8 25 23
55 34 67 11 12 23 36 27 53 3 17 19 51 35 75 16 25 29 56 29 70 0 14 12 42 26
63 15 21 31 59 35 85 5 26 20 63 33 83 14 19 28 53 32 75 4 22 17 56 30 75 12
19 25 58 29 85 3 28 18 72 31 99 14 27 30 75 35 108 5 33 20 81 33 107 13 25
27 75 31 111 4 36 18 92 31 125 13 33 28 98 33 145 6 53 19 105 35 140 20 42
26 71 26 125 0 73 21 220 44 315 20 79 30 336 30 807 1 226 4 415 9 419 13 13
7 71 -8 84 -17 14 -22 130 -5 130 20 0 12 71 -39 365 -6 33 -11 80 -11 105 0
25 -12 77 -25 115 -14 39 -30 104 -36 145 -6 41 -21 108 -34 150 -13 41 -29
104 -35 139 -6 36 -20 81 -30 100 -10 20 -23 63 -30 96 -7 33 -23 81 -36 107
-13 25 -26 66 -30 90 -4 24 -17 63 -29 88 -12 25 -26 61 -30 80 -5 19 -10 29
-12 23 -11 -31 -67 69 -77 135 -2 17 -16 46 -30 63 -14 17 -26 42 -26 55 0 29
-14 58 -39 83 -10 10 -21 36 -24 57 -4 22 -16 50 -27 62 -12 12 -27 43 -35 68
-8 26 -22 56 -33 68 -10 11 -26 42 -36 68 -9 25 -23 49 -31 52 -8 3 -19 24
-25 48 -7 24 -22 54 -35 68 -13 14 -30 41 -39 60 -23 48 -67 121 -93 155 -13
15 -23 33 -23 40 0 7 -16 32 -35 55 -19 23 -35 45 -35 49 0 4 -9 16 -19 28
-10 11 -26 34 -35 52 -10 17 -35 55 -57 84 -84 109 -116 153 -130 179 -8 14
-40 55 -71 90 -32 35 -117 133 -189 218 -71 85 -172 197 -222 249 -51 52 -92
102 -92 110 0 9 -7 16 -16 16 -14 0 -43 24 -178 145 -9 8 -59 51 -111 95 -52
43 -126 106 -165 140 -38 33 -77 65 -86 70 -9 6 -60 44 -114 85 -94 73 -122
92 -194 135 -19 11 -51 35 -71 53 -21 17 -42 32 -47 32 -10 0 -106 59 -144 89
-15 12 -47 29 -71 40 -24 10 -49 25 -56 34 -8 9 -30 21 -50 28 -20 7 -50 22
-67 34 -16 13 -41 26 -55 30 -14 4 -38 17 -55 29 -16 13 -45 28 -63 34 -18 6
-45 20 -60 30 -15 11 -45 25 -67 32 -22 7 -51 21 -64 31 -13 11 -42 24 -65 30
-22 6 -57 21 -76 35 -20 13 -51 27 -70 30 -19 4 -55 18 -78 32 -24 14 -65 29
-90 34 -25 4 -62 19 -82 33 -20 14 -48 25 -62 25 -33 0 -86 18 -119 41 -14 10
-54 23 -88 28 -35 6 -79 20 -100 32 -20 12 -66 25 -103 30 -37 5 -93 19 -125
32 -32 14 -89 27 -128 31 -38 4 -96 18 -130 31 -40 16 -97 28 -170 35 -61 5
-139 19 -175 31 -52 17 -104 23 -265 30 -234 10 -390 23 -425 37 -14 5 -46 12
-72 16 -27 4 -48 11 -48 17 0 5 -76 9 -185 9 -111 0 -185 -4 -185 -10z m640
-430 c63 -5 135 -16 160 -25 29 -11 102 -20 205 -26 122 -7 178 -15 235 -33
41 -13 113 -28 160 -34 48 -5 106 -18 133 -31 26 -12 84 -26 128 -31 51 -6 93
-17 115 -30 18 -12 63 -26 100 -31 36 -5 84 -20 107 -33 23 -13 65 -27 92 -31
28 -3 66 -17 85 -29 20 -13 56 -27 80 -31 25 -4 69 -20 99 -36 30 -16 64 -29
76 -29 12 0 41 -13 66 -29 24 -16 60 -32 79 -36 19 -4 47 -18 62 -30 15 -13
42 -27 60 -30 18 -4 49 -21 68 -36 19 -16 47 -29 62 -29 14 0 40 -12 57 -26
17 -14 48 -30 68 -36 21 -6 53 -23 71 -39 18 -16 41 -29 51 -29 9 0 35 -13 57
-30 21 -16 44 -30 50 -30 6 0 28 -13 50 -30 21 -16 44 -30 51 -30 6 0 30 -16
53 -35 23 -19 46 -35 52 -35 12 0 92 -55 133 -91 17 -15 42 -33 56 -40 44 -23
111 -71 181 -129 37 -30 93 -75 124 -100 149 -118 243 -202 414 -372 246 -245
309 -313 405 -438 27 -36 74 -93 104 -128 61 -71 93 -114 116 -155 9 -16 37
-56 63 -89 55 -71 55 -70 117 -170 27 -43 52 -78 56 -78 4 0 13 -17 19 -37 7
-21 24 -54 39 -73 37 -49 67 -98 91 -150 12 -25 28 -52 35 -60 8 -9 21 -36 30
-60 9 -25 24 -54 34 -65 11 -11 24 -37 29 -57 6 -21 20 -50 31 -64 12 -15 26
-44 31 -66 6 -21 21 -54 34 -73 27 -40 59 -132 51 -145 -4 -6 -2 -10 4 -10 6
0 8 -7 5 -15 -4 -8 -1 -15 5 -15 6 0 11 6 12 13 0 6 5 1 10 -13 6 -14 8 -37 5
-51 -4 -19 1 -32 15 -45 20 -18 49 -65 49 -80 0 -3 -6 -4 -14 -1 -12 5 -12 -3
0 -51 8 -31 23 -73 33 -92 10 -19 24 -59 30 -88 6 -29 22 -78 35 -110 13 -31
26 -81 30 -109 4 -29 16 -74 27 -100 11 -25 24 -79 30 -119 5 -40 20 -104 33
-142 13 -38 27 -97 30 -133 11 -103 25 -175 41 -205 8 -16 14 -52 13 -79 -1
-69 12 -156 23 -149 5 3 9 -23 10 -58 0 -84 6 -135 27 -248 24 -134 24 -554
-1 -688 -9 -51 -20 -157 -23 -235 -6 -167 -21 -296 -41 -352 -8 -22 -19 -87
-24 -144 -6 -67 -17 -120 -30 -150 -12 -25 -27 -87 -34 -138 -7 -53 -21 -109
-34 -133 -12 -23 -26 -72 -30 -109 -5 -36 -20 -88 -34 -116 -13 -27 -27 -70
-31 -93 -4 -24 -16 -63 -28 -85 -11 -23 -27 -69 -35 -102 -8 -33 -23 -69 -33
-80 -11 -12 -24 -44 -29 -72 -6 -28 -19 -66 -31 -85 -11 -18 -25 -49 -30 -69
-6 -20 -21 -53 -35 -72 -13 -20 -29 -54 -35 -75 -5 -22 -19 -51 -31 -66 -11
-14 -25 -43 -31 -64 -5 -20 -18 -46 -29 -57 -10 -11 -25 -40 -34 -65 -9 -24
-21 -51 -29 -60 -7 -8 -34 -54 -60 -103 -26 -48 -57 -98 -70 -112 -12 -13 -28
-42 -35 -65 -6 -22 -15 -40 -20 -40 -8 0 -47 -58 -101 -146 -14 -23 -45 -68
-70 -100 -25 -32 -54 -73 -65 -90 -37 -59 -59 -89 -120 -160 -33 -39 -78 -94
-100 -123 -22 -29 -51 -66 -65 -84 -96 -120 -501 -520 -635 -628 -60 -49 -151
-123 -202 -165 -89 -74 -162 -128 -229 -169 -17 -11 -58 -40 -90 -64 -32 -25
-72 -51 -88 -59 -17 -9 -46 -28 -64 -44 -18 -15 -38 -28 -45 -28 -7 0 -30 -14
-51 -30 -22 -17 -44 -30 -50 -30 -6 0 -29 -14 -50 -30 -22 -17 -47 -30 -57
-30 -10 0 -31 -11 -47 -25 -17 -14 -49 -32 -72 -40 -23 -8 -55 -26 -72 -40
-16 -14 -42 -25 -56 -25 -15 0 -43 -13 -62 -29 -19 -15 -51 -31 -71 -35 -20
-3 -44 -15 -54 -26 -10 -11 -42 -27 -71 -36 -29 -8 -58 -22 -64 -30 -7 -8 -37
-21 -66 -30 -30 -8 -73 -26 -97 -39 -23 -12 -61 -26 -85 -29 -24 -4 -60 -17
-80 -30 -20 -14 -59 -28 -87 -31 -27 -4 -69 -18 -92 -31 -23 -13 -70 -28 -106
-33 -35 -5 -83 -19 -106 -30 -23 -12 -72 -25 -110 -30 -38 -5 -98 -20 -133
-35 -42 -16 -100 -29 -164 -35 -60 -6 -117 -18 -145 -30 -36 -16 -81 -23 -210
-30 -102 -6 -181 -16 -209 -26 -70 -25 -247 -35 -620 -35 -379 1 -506 9 -625
39 -51 13 -125 22 -205 25 -96 3 -144 10 -205 29 -44 14 -121 29 -171 35 -57
7 -108 19 -135 33 -24 12 -76 25 -117 30 -40 4 -97 19 -125 32 -29 14 -76 27
-104 30 -29 3 -72 17 -95 31 -24 13 -65 28 -93 31 -27 4 -68 17 -90 30 -22 12
-63 27 -91 33 -27 6 -70 22 -95 36 -24 14 -53 26 -65 26 -11 0 -40 13 -65 29
-24 16 -60 31 -80 35 -20 4 -44 15 -54 26 -10 11 -40 27 -67 35 -27 8 -63 26
-79 40 -17 14 -41 25 -54 25 -13 0 -37 12 -54 26 -17 14 -48 30 -68 36 -21 6
-53 23 -71 39 -18 16 -40 29 -48 29 -16 0 -114 56 -170 97 -17 13 -36 23 -41
23 -6 0 -30 16 -53 35 -23 19 -48 35 -55 35 -7 0 -30 13 -51 30 -104 78 -164
121 -209 146 -16 9 -62 44 -102 78 -40 34 -95 79 -124 101 -209 162 -493 432
-483 459 5 12 1 19 -12 22 -11 3 -28 20 -40 37 -12 19 -28 31 -39 30 -22 -2
-47 26 -40 45 3 7 0 10 -5 7 -6 -3 -10 -1 -10 4 0 6 -6 19 -14 28 -15 18 -151
182 -265 318 -32 39 -81 104 -110 146 -28 42 -63 89 -76 103 -14 15 -25 30
-25 34 0 4 -8 16 -17 27 -15 20 -15 20 -10 -3 8 -33 -10 -17 -35 31 -20 41
-38 67 -89 130 -14 18 -31 47 -38 66 -6 19 -19 43 -29 54 -21 23 -63 95 -96
162 -13 28 -31 57 -39 64 -9 7 -19 26 -22 42 -4 16 -17 42 -29 57 -13 15 -31
50 -40 79 -9 28 -23 57 -31 63 -8 6 -21 35 -29 65 -9 29 -22 58 -30 64 -8 7
-22 35 -31 62 -9 28 -27 69 -40 92 -12 23 -26 60 -30 82 -3 22 -17 56 -31 75
-13 20 -28 58 -33 86 -6 28 -19 67 -31 86 -11 19 -25 61 -31 93 -6 32 -21 79
-34 104 -13 25 -27 73 -31 106 -3 33 -17 81 -30 107 -25 50 -44 208 -25 208
11 0 0 45 -20 81 -8 13 -14 31 -15 39 -1 8 -7 60 -14 115 -6 55 -20 140 -31
190 -10 49 -19 101 -19 116 0 15 -7 34 -15 43 -18 18 -20 69 -2 97 10 17 9 22
-5 30 -14 8 -18 23 -18 65 0 34 4 53 10 49 6 -3 7 1 4 9 -3 9 -10 16 -14 16
-4 0 -15 55 -24 123 -21 157 -21 472 -1 617 9 58 20 184 25 280 10 191 24 301
46 363 8 22 18 87 23 143 7 74 16 118 34 156 16 35 26 78 30 129 4 53 13 91
30 125 13 27 28 76 32 109 4 33 20 90 36 127 16 36 29 77 29 90 0 14 11 47 25
74 14 27 30 71 36 99 5 27 20 65 33 85 14 19 28 53 31 75 4 22 18 59 30 82 13
23 31 64 40 92 9 27 23 55 31 61 7 7 21 35 29 62 8 27 23 60 34 74 11 14 23
39 26 57 4 18 18 47 32 65 13 17 29 47 35 65 6 17 17 39 24 48 8 9 28 42 44
75 37 71 67 120 97 158 12 15 24 40 28 56 3 16 13 34 22 41 14 13 69 93 103
151 8 15 36 54 62 87 26 33 54 75 64 93 9 18 54 76 98 129 45 53 99 120 121
149 161 214 590 638 840 830 25 19 76 60 113 91 37 31 85 68 107 82 22 15 58
40 80 57 22 16 53 38 68 48 16 9 45 29 64 45 20 15 42 27 49 27 7 0 28 13 46
28 45 38 253 162 272 162 8 0 30 13 49 29 18 16 46 33 63 37 16 4 47 20 68 35
22 16 50 29 62 29 12 0 36 11 53 25 16 14 52 32 79 40 27 8 57 24 67 35 10 11
34 22 54 26 20 4 56 19 80 35 25 16 54 29 65 29 12 0 41 12 65 26 25 14 68 30
95 36 28 6 69 21 91 33 22 13 62 26 89 30 28 4 74 20 104 36 35 18 70 29 96
29 25 0 60 10 89 25 30 16 77 29 128 36 45 5 100 19 122 30 23 12 77 25 131
31 50 5 125 21 166 34 57 18 114 26 230 34 89 5 176 16 205 25 28 9 95 20 150
24 141 11 777 12 915 1z"/>
<path d="M17835 19560 c-110 -4 -292 -8 -405 -9 -137 -1 -233 -6 -290 -17 -47
-8 -157 -19 -245 -24 -88 -5 -182 -16 -210 -24 -27 -7 -93 -17 -145 -21 -52
-4 -102 -11 -111 -16 -8 -4 -65 -14 -126 -22 -60 -8 -119 -20 -130 -26 -12 -6
-47 -13 -79 -17 -33 -3 -83 -15 -112 -25 -29 -10 -67 -19 -85 -19 -18 0 -52
-9 -76 -20 -24 -11 -57 -20 -75 -20 -17 -1 -49 -9 -71 -20 -22 -11 -50 -19
-63 -20 -12 0 -39 -8 -60 -19 -20 -10 -51 -22 -69 -25 -17 -4 -48 -16 -69 -27
-21 -10 -44 -19 -51 -19 -7 0 -34 -10 -60 -21 -90 -40 -138 -62 -158 -72 -58
-31 -182 -94 -213 -111 -47 -24 -246 -157 -282 -189 -8 -7 -64 -53 -125 -102
-136 -111 -285 -260 -384 -385 -41 -52 -81 -102 -88 -110 -8 -8 -28 -37 -46
-65 -18 -27 -40 -58 -49 -67 -10 -10 -18 -22 -18 -28 0 -5 -10 -24 -22 -43
-13 -18 -49 -87 -82 -152 -32 -66 -67 -137 -77 -157 -11 -20 -19 -43 -19 -50
0 -7 -8 -29 -19 -48 -10 -19 -22 -54 -25 -77 -4 -23 -14 -47 -21 -53 -8 -6
-17 -37 -21 -68 -4 -31 -15 -74 -25 -97 -10 -22 -19 -63 -19 -91 0 -28 -10
-80 -22 -115 -20 -61 -21 -81 -21 -459 0 -343 2 -400 16 -433 14 -33 36 -161
41 -232 0 -11 4 -22 8 -25 4 -3 9 -19 12 -35 12 -66 19 -91 33 -118 8 -15 16
-40 18 -55 19 -134 43 -212 68 -221 34 -13 63 8 172 123 54 58 101 103 104
101 7 -8 41 26 41 41 0 15 57 64 74 64 7 0 18 12 25 26 11 25 122 135 213 210
26 21 47 44 47 51 1 7 8 10 18 6 10 -4 14 -2 10 4 -4 6 34 49 84 95 l90 85
-25 38 c-14 21 -26 46 -26 55 0 10 -7 23 -15 30 -8 7 -15 17 -15 23 0 6 -9 29
-19 51 -41 86 -97 260 -120 374 -6 28 -15 73 -21 100 -12 61 -32 236 -37 335
-3 52 -1 83 7 93 9 10 9 14 1 14 -15 0 -14 47 4 155 8 50 15 114 15 143 0 29
7 66 15 82 9 16 18 51 22 77 3 27 14 64 23 83 10 19 21 49 24 67 4 17 14 37
22 44 8 6 14 19 14 29 0 9 9 29 20 43 11 14 20 30 20 35 0 6 32 58 70 115 88
131 235 275 380 372 116 78 363 205 397 205 13 0 37 9 55 20 18 11 44 20 58
20 14 0 42 9 63 20 20 11 54 20 74 20 21 0 56 9 78 19 22 10 68 21 103 25 34
4 77 13 96 21 18 8 75 17 127 21 52 3 120 13 152 20 98 25 613 36 1092 24 231
-6 443 -15 470 -20 28 -6 118 -15 200 -20 83 -5 184 -16 225 -24 41 -8 116
-18 165 -22 50 -3 108 -13 130 -20 22 -8 81 -17 130 -21 99 -6 125 -15 125
-41 0 -29 -29 -62 -55 -62 -13 0 -27 -5 -31 -11 -3 -6 -25 -19 -48 -30 -22
-11 -72 -39 -111 -64 -38 -24 -86 -54 -105 -65 -19 -11 -60 -38 -90 -61 -30
-22 -66 -47 -80 -57 -99 -66 -282 -227 -428 -376 -96 -97 -178 -176 -183 -176
-5 0 -9 -8 -9 -19 0 -10 -9 -21 -21 -24 -13 -3 -19 -12 -17 -24 2 -10 -2 -17
-9 -15 -7 1 -13 -5 -13 -14 0 -9 -13 -32 -30 -51 -16 -18 -30 -38 -30 -44 0
-6 -4 -7 -10 -4 -5 3 -10 0 -10 -8 0 -7 -28 -56 -63 -108 -64 -97 -143 -225
-164 -269 -7 -14 -17 -32 -23 -40 -5 -8 -15 -26 -21 -40 -5 -14 -21 -43 -34
-65 -14 -22 -29 -49 -34 -60 -5 -11 -48 -99 -95 -196 -47 -97 -86 -180 -86
-186 0 -6 -6 -16 -14 -22 -8 -7 -17 -24 -20 -39 -4 -15 -13 -40 -21 -57 -8
-16 -26 -57 -40 -90 -14 -33 -34 -77 -45 -97 -11 -20 -20 -44 -20 -53 0 -8 -9
-32 -20 -52 -11 -21 -20 -44 -20 -51 0 -7 -9 -30 -19 -50 -25 -49 -71 -169
-71 -186 0 -7 -7 -19 -15 -26 -8 -7 -17 -28 -21 -49 -4 -20 -15 -52 -25 -71
-11 -19 -19 -42 -19 -50 0 -8 -9 -28 -20 -45 -11 -16 -20 -41 -20 -55 0 -14
-9 -38 -20 -55 -11 -16 -20 -41 -20 -55 0 -14 -9 -42 -20 -63 -11 -20 -20 -45
-20 -55 0 -9 -8 -33 -19 -52 -10 -19 -22 -51 -26 -70 -4 -19 -13 -44 -20 -55
-7 -11 -16 -36 -20 -55 -4 -19 -16 -51 -26 -70 -11 -19 -19 -43 -19 -52 0 -10
-9 -38 -20 -63 -11 -25 -29 -65 -40 -90 -11 -25 -20 -53 -20 -63 0 -9 -9 -34
-20 -55 -11 -20 -20 -45 -20 -54 0 -10 -11 -40 -25 -68 -13 -27 -25 -54 -25
-60 0 -11 -34 -102 -60 -160 -17 -38 -22 -53 -58 -155 -9 -25 -22 -51 -29 -58
-7 -7 -13 -23 -13 -35 0 -12 -9 -39 -20 -60 -11 -20 -20 -43 -20 -49 0 -7 -11
-35 -25 -63 -13 -27 -25 -56 -25 -63 0 -6 -9 -29 -20 -49 -11 -21 -20 -45 -20
-53 0 -8 -9 -28 -20 -45 -11 -16 -20 -38 -20 -49 0 -10 -9 -33 -19 -50 -10
-17 -22 -45 -26 -63 -3 -17 -13 -37 -21 -44 -8 -6 -14 -19 -14 -29 0 -9 -9
-29 -20 -43 -11 -14 -20 -33 -20 -44 0 -10 -9 -33 -20 -51 -11 -18 -20 -37
-20 -42 0 -10 -107 -229 -151 -310 -30 -54 -48 -83 -106 -171 -23 -36 -43 -69
-43 -73 0 -4 -19 -32 -42 -61 -24 -30 -57 -73 -75 -97 -67 -90 -281 -297 -355
-344 -26 -16 -52 -24 -84 -24 -51 0 -176 20 -184 30 -3 3 -54 6 -115 6 -60 0
-131 4 -158 9 -39 6 -51 5 -67 -10 -11 -10 -17 -21 -14 -26 2 -5 -7 -11 -21
-15 -13 -3 -23 -10 -20 -14 3 -4 -26 -33 -63 -64 -86 -72 -137 -115 -167 -143
-13 -13 -28 -23 -33 -23 -5 0 -39 -32 -76 -71 -36 -39 -66 -69 -66 -66 0 2
-30 -25 -67 -60 -37 -35 -72 -63 -79 -63 -6 0 -20 -11 -30 -25 -10 -14 -24
-25 -30 -25 -12 0 -44 -42 -44 -57 0 -4 148 -7 328 -5 230 2 391 -2 538 -13
115 -8 425 -20 689 -25 264 -6 518 -14 565 -19 47 -5 90 -6 97 -3 6 4 64 63
129 132 65 69 189 198 276 288 87 90 158 168 158 173 0 5 -6 10 -12 11 -7 0
-24 3 -38 4 -14 2 -151 8 -305 14 -154 6 -381 17 -504 24 -193 11 -226 15
-237 30 -17 24 -9 42 24 55 15 6 47 26 72 45 25 19 50 35 56 35 6 1 18 8 25
18 8 9 65 59 128 111 135 112 227 204 313 310 34 42 75 91 91 107 17 17 41 47
55 68 13 20 27 37 29 37 2 0 1 -5 -3 -12 -4 -7 -3 -8 5 -4 6 4 9 12 5 17 -5 9
25 52 66 94 11 12 20 26 20 32 0 7 15 33 33 59 34 49 48 72 110 178 21 36 42
68 46 71 5 3 12 18 16 34 3 16 15 37 26 47 10 9 19 25 19 34 0 9 9 27 20 40
11 13 20 31 20 40 0 10 9 29 20 43 11 14 20 32 20 40 0 8 9 26 20 40 11 14 20
30 20 37 0 10 23 64 71 166 10 23 19 48 19 56 0 8 5 19 11 25 5 5 18 25 27 44
l17 34 950 5 951 5 54 38 c30 20 93 63 140 94 47 31 109 76 138 100 61 48 97
55 112 21 12 -31 30 -242 30 -365 0 -56 7 -121 15 -153 9 -30 20 -113 25 -185
5 -71 16 -159 24 -195 7 -36 17 -107 21 -158 4 -51 13 -108 20 -125 7 -18 16
-66 20 -107 4 -41 13 -99 21 -128 8 -29 17 -83 21 -120 3 -37 14 -93 24 -124
11 -32 19 -73 19 -93 0 -20 7 -52 15 -72 9 -21 18 -64 22 -98 3 -33 14 -80 23
-105 9 -25 20 -69 24 -99 4 -30 14 -67 22 -82 7 -15 14 -39 14 -52 0 -14 11
-59 25 -101 14 -42 25 -89 25 -104 0 -15 7 -35 15 -46 8 -10 17 -39 21 -65 4
-25 15 -68 25 -94 11 -26 19 -59 19 -72 0 -14 9 -42 20 -62 11 -21 20 -48 20
-60 0 -42 18 -73 44 -73 13 0 29 6 35 14 7 8 27 18 44 21 18 4 39 13 47 19 8
7 36 20 62 30 26 10 50 22 53 27 4 5 15 9 26 9 11 0 37 8 57 19 20 10 60 29
87 41 28 12 67 31 87 41 20 11 42 19 49 19 7 0 37 12 68 26 31 15 75 35 99 45
100 45 139 63 174 80 20 11 47 19 58 19 12 0 33 9 47 20 14 11 32 20 40 20 8
0 31 9 51 20 63 33 148 70 164 70 8 0 27 9 41 20 14 11 33 20 42 20 9 0 28 9
42 20 14 11 32 20 40 20 8 0 26 9 40 20 14 11 33 20 43 20 10 0 29 9 43 20 14
11 29 20 34 20 28 0 142 69 189 115 l54 53 0 89 c0 115 -5 122 -64 99 -25 -10
-48 -22 -51 -27 -4 -5 -15 -9 -27 -9 -11 0 -37 -9 -57 -19 -42 -22 -117 -48
-181 -62 -25 -6 -72 -18 -105 -27 -80 -23 -284 -22 -346 0 -24 9 -56 19 -71
22 -39 9 -108 58 -144 103 -33 40 -84 131 -84 148 0 5 -8 28 -19 50 -27 57
-41 101 -57 174 -8 35 -21 76 -29 92 -8 15 -15 39 -15 53 0 14 -9 52 -19 83
-11 32 -23 82 -26 112 -4 30 -13 68 -20 85 -7 17 -16 63 -20 101 -4 39 -14 82
-21 97 -8 15 -19 65 -24 110 -5 46 -16 108 -25 138 -8 30 -15 78 -15 108 0 29
-7 69 -15 88 -8 20 -19 86 -25 147 -5 62 -17 141 -25 177 -8 36 -15 104 -15
151 0 48 -9 138 -19 200 -12 73 -22 190 -25 324 -4 116 -9 253 -13 305 -3 52
-7 138 -8 190 -1 52 -8 284 -15 515 -13 446 -7 1253 11 1413 5 48 16 182 24
297 8 116 21 235 29 265 9 30 16 92 16 137 0 53 7 103 20 145 11 34 20 84 20
111 0 26 9 73 20 104 11 32 20 71 20 88 0 17 7 55 15 85 9 30 22 81 29 112 8
32 18 64 24 70 5 7 13 33 17 57 4 24 16 58 26 75 10 17 19 39 19 48 0 21 87
206 108 230 8 10 12 24 9 32 -5 13 -48 15 -292 15 -266 1 -546 15 -569 29 -24
15 -1244 33 -1521 22z m1248 -810 c-8 -93 -25 -191 -37 -225 -8 -22 -15 -72
-16 -111 0 -39 -9 -123 -19 -185 -11 -63 -22 -190 -26 -284 -3 -93 -11 -197
-16 -230 -5 -33 -13 -161 -19 -285 -6 -124 -15 -256 -21 -295 -6 -38 -14 -236
-16 -440 -4 -289 -2 -417 11 -585 9 -118 21 -325 27 -460 5 -135 15 -292 23
-350 19 -140 20 -284 3 -299 -18 -14 -2066 -16 -2080 -2 -16 16 -10 65 12 107
12 21 21 46 21 54 0 8 9 30 20 48 11 18 20 38 20 45 0 7 9 29 20 50 11 20 20
45 20 55 0 9 8 33 19 52 10 19 21 52 25 74 4 21 16 55 27 75 10 20 19 46 19
58 0 13 9 40 20 60 11 21 20 47 20 58 0 11 9 37 20 58 11 20 20 47 20 60 0 12
9 39 20 60 11 20 20 47 20 59 0 13 7 37 16 53 9 17 22 50 30 75 23 79 46 144
65 186 11 22 19 47 19 55 0 8 9 28 20 44 11 17 20 40 20 53 0 12 9 39 20 59
11 21 20 44 20 51 0 7 9 30 19 50 11 20 32 66 46 102 39 93 101 232 117 260 4
8 13 26 20 40 6 14 28 60 49 104 22 43 39 84 39 91 0 6 9 20 19 29 11 10 22
29 26 43 3 15 15 38 26 51 10 14 19 33 19 43 0 10 4 20 9 23 5 4 37 54 71 114
74 128 117 198 148 236 12 16 22 33 22 39 0 6 18 32 40 58 22 26 40 52 40 58
0 6 19 34 43 63 24 29 64 81 88 115 112 154 448 490 583 584 29 20 80 58 112
83 44 34 66 45 89 43 25 -2 30 -6 28 -27z"/>
<path d="M31368 21233 c-36 -42 -69 -107 -83 -165 -12 -52 -13 -77 -3 -140 9
-62 9 -85 -2 -118 -12 -37 -12 -43 7 -68 11 -15 28 -42 37 -61 10 -18 36 -53
58 -78 32 -34 39 -46 29 -56 -17 -17 -45 4 -51 39 -12 66 -167 108 -250 66
-45 -22 -51 -49 -13 -57 67 -14 111 -30 151 -57 24 -15 45 -28 47 -28 9 0 181
-122 347 -246 142 -105 241 -164 278 -164 35 0 41 -23 10 -40 -26 -14 -25 -28
2 -57 32 -35 15 -56 -53 -66 -80 -11 -168 -58 -216 -114 -36 -43 -73 -103 -73
-118 0 -11 28 -4 41 11 14 17 76 52 129 71 71 27 170 45 370 68 295 34 415 57
585 111 94 30 247 100 307 142 99 67 128 84 137 81 8 -3 12 -416 14 -1316 l2
-1313 -27 -37 c-35 -47 -35 -67 1 -104 38 -37 59 -37 99 2 40 39 40 55 2 107
l-30 42 0 1340 c0 1187 -2 1341 -15 1346 -8 4 -21 2 -28 -4 -40 -32 -184 -98
-290 -133 -264 -87 -495 -83 -705 12 -35 15 -77 40 -93 54 -53 44 -78 28 -79
-47 0 -44 -50 -38 -140 18 -150 91 -340 312 -418 484 -77 172 -96 248 -96 379
0 94 3 113 27 165 15 32 27 60 27 62 0 11 -29 2 -42 -13z"/>
<path d="M1114 20833 c-31 -131 -182 -333 -249 -333 -31 0 -34 -29 -6 -54 18
-16 22 -14 88 51 39 37 82 89 97 115 26 44 51 65 59 50 3 -4 5 -38 6 -77 2
-91 9 -127 38 -195 36 -81 88 -131 151 -145 28 -6 32 -4 32 14 0 12 -4 21 -9
21 -13 0 -104 118 -120 155 -42 96 -53 151 -55 284 -2 89 -7 136 -14 139 -6 2
-14 -9 -18 -25z"/>
<path d="M657 20703 c-11 -10 -8 -41 6 -64 11 -18 8 -24 -26 -54 -22 -19 -36
-39 -32 -44 3 -6 26 -11 50 -11 27 0 58 -8 79 -21 37 -22 40 -27 30 -53 -8
-21 -94 -21 -135 0 -42 21 -62 12 -54 -24 5 -23 0 -35 -25 -63 -87 -95 -73
-118 46 -77 25 9 36 8 55 -5 35 -25 46 -21 53 17 9 46 59 89 98 84 18 -3 28 0
28 8 0 7 3 19 6 28 3 8 -3 22 -15 33 -25 21 -27 39 -6 47 13 4 15 19 13 68
l-3 62 -41 11 c-22 5 -55 22 -73 38 -34 28 -43 32 -54 20z"/>
<path d="M853 20382 c-11 -9 -24 -32 -28 -51 -4 -18 -16 -49 -27 -67 -27 -47
-18 -67 26 -58 29 5 39 2 61 -20 39 -39 62 -34 70 13 5 32 12 42 36 50 36 12
37 26 2 48 -16 9 -48 36 -73 59 -44 42 -46 43 -67 26z"/>
<path d="M1396 7469 c-34 -27 -34 -71 -1 -115 l26 -34 -1 -1339 c0 -898 3
-1342 10 -1346 6 -3 65 21 133 54 218 108 333 136 552 135 153 0 164 -2 253
-32 92 -31 149 -61 205 -104 34 -28 47 -16 54 46 5 43 8 46 34 46 19 0 29 5
29 15 0 8 9 20 20 27 11 7 20 18 20 24 0 6 -9 19 -20 29 -42 38 -15 75 55 75
52 0 158 55 205 107 39 44 86 121 77 129 -2 2 -34 -16 -71 -40 -42 -28 -92
-50 -134 -61 -37 -9 -92 -23 -122 -30 -30 -8 -102 -19 -160 -25 -262 -25 -350
-38 -510 -76 -157 -37 -334 -113 -462 -197 -47 -31 -95 -57 -106 -57 -20 0
-20 3 -16 1312 l3 1311 26 38 c32 49 32 69 -3 102 -34 32 -60 34 -96 6z"/>
<path d="M33139 7081 c-36 -36 -36 -53 -1 -98 l27 -36 -4 -1337 -3 -1337 27
-29 c112 -119 165 -241 165 -380 0 -229 -148 -416 -422 -533 -92 -40 -123 -32
-46 12 175 100 282 227 322 381 25 97 -1 98 -50 2 -35 -70 -143 -186 -173
-186 -19 0 -21 4 -16 23 4 12 17 32 28 45 l21 22 -22 16 c-15 11 -22 25 -22
50 0 50 -26 44 -50 -11 -17 -41 -22 -45 -53 -45 -19 0 -40 7 -47 15 -15 19
-130 21 -148 3 -19 -19 -14 -37 13 -44 74 -19 100 -131 48 -207 -30 -43 -99
-85 -115 -69 -7 7 -7 15 1 24 66 77 85 117 79 160 -5 34 -71 38 -104 7 -18
-17 -29 -20 -51 -14 -15 4 -49 8 -75 9 -39 1 -53 -4 -74 -26 -31 -30 -25 -48
15 -48 36 0 61 -28 61 -67 0 -39 -48 -83 -91 -83 -17 0 -44 -7 -61 -16 -25
-13 -49 -15 -117 -10 -174 13 -297 29 -318 43 -34 20 -28 52 17 98 28 29 43
54 47 81 l6 39 -54 -49 c-79 -71 -126 -89 -225 -84 -64 3 -87 9 -113 27 -68
49 -169 40 -229 -19 -22 -22 -46 -40 -54 -40 -8 0 -27 13 -43 30 -34 35 -71
39 -106 11 -19 -15 -41 -19 -100 -19 -41 0 -106 -6 -144 -12 -132 -22 -315
-76 -338 -99 -6 -6 -23 -11 -38 -11 -31 0 -48 -18 -29 -30 17 -10 47 -1 54 16
3 8 18 14 33 14 15 0 48 6 73 14 74 24 148 36 289 47 l133 11 37 -35 c45 -42
71 -50 122 -32 43 16 49 11 80 -59 18 -39 83 -66 162 -66 114 -1 169 -26 200
-90 19 -39 43 -32 39 11 -2 21 2 40 8 44 6 4 8 15 5 26 -9 28 21 35 59 13 43
-25 48 -30 134 -109 148 -139 257 -304 324 -490 36 -102 20 -120 -106 -113
-71 4 -91 9 -153 43 -73 39 -89 51 -260 190 -101 83 -210 155 -235 155 -7 0
-22 6 -33 13 -49 33 -251 77 -352 77 -88 0 -273 -33 -371 -65 -207 -69 -439
-227 -528 -357 -37 -55 -41 -57 -92 -56 l-43 1 7 79 c5 63 3 92 -11 139 -29
94 -40 75 -40 -68 l0 -128 -48 -100 c-26 -55 -57 -118 -67 -141 -27 -56 -25
-71 10 -89 38 -19 54 -50 46 -87 -4 -20 0 -40 11 -59 14 -24 15 -32 3 -56 -7
-15 -15 -55 -17 -88 -2 -33 -8 -64 -12 -68 -15 -16 -40 6 -57 49 -22 59 -38
57 -29 -3 10 -66 37 -115 86 -154 35 -27 51 -33 94 -33 95 -1 152 48 175 148
9 42 8 62 -11 137 -20 76 -21 92 -10 113 8 14 11 32 7 41 -5 13 -9 14 -28 4
-35 -19 -56 -50 -67 -102 -15 -68 -14 -85 9 -92 23 -7 37 -64 22 -91 -14 -27
-94 -49 -121 -35 -61 33 -50 96 37 210 l64 86 -7 75 c-10 117 -10 123 20 186
55 117 138 216 241 287 156 108 303 153 446 137 83 -9 127 -39 163 -111 20
-38 31 -49 49 -49 13 0 29 6 36 14 6 8 24 16 38 18 23 3 27 8 30 40 2 21 -1
45 -6 55 -12 21 -91 49 -195 70 -71 14 -86 14 -155 0 -55 -11 -83 -12 -102 -5
-25 10 -24 10 20 30 69 30 241 58 355 58 136 0 262 -27 373 -80 190 -92 340
-308 342 -493 0 -51 -19 -124 -36 -138 -18 -15 -18 -49 0 -49 26 0 140 95 146
121 8 34 41 31 59 -6 30 -62 158 -165 206 -165 16 0 20 28 16 102 -4 58 4 60
70 26 l61 -32 -7 -56 c-4 -30 -11 -63 -16 -72 -5 -9 -9 -25 -9 -36 0 -10 -23
-64 -51 -120 -93 -186 -232 -308 -459 -405 -19 -9 -68 -22 -108 -30 -41 -9
-76 -18 -79 -21 -32 -32 201 -38 307 -7 36 10 91 30 121 45 99 46 107 27 22
-55 -79 -75 -157 -131 -250 -178 -186 -94 -340 -128 -538 -116 -118 7 -181 21
-369 85 -120 40 -179 49 -191 29 -23 -36 171 -127 305 -144 72 -9 92 -14 85
-26 -11 -17 -149 -9 -245 15 -283 71 -495 226 -613 446 -37 68 -67 100 -94
100 -27 0 -52 -24 -53 -51 -1 -62 109 -228 219 -330 96 -89 212 -154 346 -193
46 -13 81 -29 83 -37 2 -10 -19 -20 -65 -33 -102 -29 -174 -80 -209 -148 -13
-25 -13 -32 1 -58 9 -16 19 -30 23 -30 5 0 21 13 36 29 41 43 141 88 227 102
62 10 95 10 175 0 166 -22 214 -24 254 -11 44 14 66 50 50 80 -25 47 -4 60
135 80 128 19 359 112 495 199 185 120 351 304 450 501 42 83 89 236 96 314 8
92 21 105 81 81 117 -46 290 -58 425 -30 102 22 250 97 314 160 110 109 150
265 90 355 -14 22 -39 46 -56 55 -34 18 -38 43 -13 81 9 14 20 50 24 80 5 40
16 64 38 90 17 19 31 39 31 43 0 29 -145 29 -199 1 -47 -23 -81 -64 -81 -96 0
-60 -26 -64 -58 -10 -15 26 -32 36 -83 51 -70 21 -241 27 -259 9 -20 -20 73
-120 178 -191 22 -16 48 -23 77 -23 56 0 57 -13 5 -57 -49 -42 -51 -72 -15
-169 14 -36 25 -77 25 -90 0 -13 6 -24 13 -24 12 0 66 69 79 102 4 10 23 27
42 39 18 11 46 38 60 60 36 54 67 51 113 -9 29 -38 33 -51 33 -102 0 -70 -22
-135 -57 -172 -38 -40 -59 -36 -85 17 -12 25 -28 45 -35 45 -7 0 -24 -17 -37
-39 -30 -48 -62 -73 -134 -107 -90 -43 -173 -46 -460 -19 -18 2 -35 5 -38 7
-2 3 -9 51 -15 109 -5 57 -17 117 -25 133 -8 16 -14 40 -14 54 0 31 -66 196
-111 279 -53 97 -145 217 -228 296 -81 77 -222 180 -283 206 -41 17 -47 28
-23 38 13 5 255 -108 320 -149 143 -92 327 -266 402 -381 57 -88 73 -139 73
-236 0 -65 4 -82 25 -114 14 -20 29 -37 34 -37 5 0 36 -25 70 -55 34 -30 66
-55 71 -55 29 0 22 185 -9 255 -10 22 -51 72 -90 110 -40 39 -112 120 -161
180 -91 114 -187 206 -302 289 -37 27 -65 53 -62 58 3 4 19 8 36 8 26 0 29 2
18 15 -7 8 -24 15 -39 15 -30 0 -225 65 -258 86 -12 8 -32 14 -43 14 -19 0
-38 25 -28 36 3 2 68 -12 144 -32 146 -39 180 -45 334 -65 113 -14 402 -6 500
14 59 12 130 34 185 58 11 4 45 18 75 30 140 58 312 205 407 349 43 64 147
191 195 237 18 18 53 43 78 56 25 13 47 32 49 42 3 16 -2 17 -35 12 -69 -11
-128 -31 -177 -60 -26 -15 -52 -25 -57 -22 -6 3 -10 21 -10 40 0 46 -38 142
-74 189 -16 21 -54 54 -83 73 l-53 34 0 1340 0 1341 30 35 c37 42 38 72 2 106
-36 35 -66 34 -103 -2z m-861 -4780 c4 -98 0 -107 -35 -88 -16 8 -47 23 -71
33 -47 19 -87 66 -78 89 3 10 20 15 48 15 24 1 57 7 73 15 53 24 60 18 63 -64z"/>
<path d="M2706 4781 c-3 -5 25 -27 62 -49 168 -100 365 -341 447 -547 51 -129
67 -202 67 -316 1 -94 -2 -113 -26 -164 -33 -73 -33 -81 4 -55 16 11 44 51 62
88 33 67 33 67 31 204 -2 85 1 138 7 138 19 0 10 31 -20 75 -16 24 -30 48 -30
53 0 6 -20 32 -45 60 -49 54 -55 72 -27 72 25 0 42 -19 42 -47 0 -35 88 -77
161 -77 96 1 168 61 89 75 -92 16 -183 70 -425 249 -178 133 -305 220 -321
220 -6 0 -17 7 -24 15 -14 17 -46 20 -54 6z"/>
<path d="M33694 4742 c-6 -4 -14 -23 -18 -44 -5 -28 -13 -38 -36 -47 -39 -13
-38 -27 3 -47 17 -9 48 -35 68 -57 33 -38 38 -41 62 -30 19 9 28 23 33 49 4
21 16 53 27 71 24 42 16 68 -18 59 -28 -7 -63 8 -83 36 -14 20 -21 22 -38 10z"/>
<path d="M1933 4690 c-50 -11 -95 -42 -130 -89 -28 -36 -33 -51 -33 -95 0 -43
6 -61 31 -95 54 -75 134 -94 258 -61 66 18 87 20 107 11 58 -26 73 0 27 47
-20 20 -45 32 -86 40 -65 13 -83 9 -90 -19 -7 -27 -95 -28 -103 -1 -3 9 -10
25 -15 34 -11 21 -12 68 -1 85 13 20 54 30 90 22 19 -4 70 -35 115 -69 l81
-63 106 7 c105 7 105 7 175 -28 178 -86 312 -242 387 -451 28 -76 35 -233 14
-289 -19 -51 -58 -88 -111 -107 -44 -16 -49 -32 -25 -77 10 -20 21 -45 24 -54
4 -13 16 -18 45 -18 42 0 71 20 71 48 0 9 7 30 15 45 8 16 21 68 30 115 13 77
13 94 -1 152 -14 63 -11 120 7 120 5 0 9 -7 9 -15 0 -9 7 -30 16 -46 23 -45
54 -240 54 -339 0 -348 -194 -625 -490 -701 -78 -20 -204 -5 -231 27 -15 18
-39 18 -39 -1 0 -34 87 -140 123 -149 41 -10 33 -31 -30 -73 -41 -26 -73 -60
-107 -111 -60 -87 -56 -96 41 -95 38 0 71 -1 75 -4 4 -2 -7 -31 -24 -63 -28
-54 -34 -60 -62 -60 -17 0 -48 5 -68 10 -21 6 -53 14 -71 19 -61 15 -187 83
-255 136 -140 110 -260 298 -292 455 -19 94 -28 116 -42 102 -8 -8 -11 -52
-10 -135 2 -100 7 -136 28 -202 14 -44 34 -94 45 -111 67 -109 -39 -46 -136
80 -81 106 -128 194 -172 321 -46 134 -48 145 -47 335 l0 185 57 168 c67 199
77 244 53 253 -23 9 -38 -7 -70 -72 -43 -86 -67 -162 -77 -238 -9 -71 -28
-113 -30 -66 -5 177 27 312 116 486 82 159 180 263 345 362 70 42 97 65 105
85 8 24 6 31 -10 43 -30 22 -72 17 -139 -18 -171 -90 -314 -248 -394 -435 -12
-28 -22 -57 -22 -63 0 -32 -33 -120 -45 -120 -8 0 -22 29 -35 71 -45 149 -142
245 -209 209 -28 -14 -26 -30 8 -63 41 -40 78 -124 97 -216 15 -74 15 -90 0
-199 -20 -148 -20 -215 -1 -252 18 -34 54 -47 85 -30 14 7 26 8 32 2 13 -13
38 -111 38 -150 0 -45 64 -229 115 -332 125 -253 254 -398 480 -541 39 -25 90
-54 115 -66 84 -40 233 -84 301 -90 98 -8 102 -16 64 -143 -30 -102 -35 -196
-19 -309 18 -120 35 -170 98 -272 55 -91 92 -127 179 -174 59 -32 76 -37 137
-37 59 -1 76 3 110 26 22 14 46 39 55 56 18 34 43 38 81 13 14 -9 50 -20 80
-24 40 -5 64 -16 90 -39 20 -17 40 -28 45 -23 5 5 11 40 15 79 5 59 3 76 -14
109 -28 55 -56 78 -104 84 -53 8 -58 25 -15 51 24 14 40 35 52 66 35 93 41
269 9 281 -21 8 -85 -48 -147 -130 -50 -66 -57 -80 -57 -121 0 -25 -5 -46 -10
-46 -6 0 -28 18 -49 40 -46 48 -77 51 -166 15 -33 -14 -72 -25 -87 -25 -17 0
-28 -5 -28 -13 0 -14 81 -77 99 -77 5 0 24 -20 40 -44 17 -24 47 -54 66 -66
43 -27 46 -56 8 -92 -43 -40 -73 -51 -134 -51 -89 1 -189 56 -189 104 0 14 13
26 46 40 62 28 54 51 -33 95 -19 9 -62 81 -85 141 -19 51 -21 76 -19 198 1 77
5 169 9 205 l7 65 110 13 c61 8 123 20 139 28 16 8 40 14 52 14 13 0 52 11 86
24 191 72 379 194 501 326 69 75 192 251 198 285 7 34 35 25 31 -10 -2 -16 -7
-32 -11 -35 -4 -3 -17 -30 -29 -60 -89 -217 -301 -484 -480 -604 -90 -61 -138
-76 -236 -76 -95 0 -118 -12 -188 -98 -24 -30 -52 -65 -63 -78 -30 -38 -8 -46
103 -39 125 7 159 23 240 109 37 39 111 107 164 150 123 97 200 176 290 293
39 51 74 90 79 87 5 -3 9 -19 9 -36 0 -26 2 -29 15 -18 8 7 15 26 15 42 0 33
52 193 81 250 10 20 19 44 19 53 0 9 7 18 15 22 30 11 31 19 -23 -187 -49
-192 -57 -258 -57 -485 0 -268 12 -338 98 -545 65 -157 196 -313 355 -424 160
-110 268 -212 302 -282 26 -57 55 -61 47 -6 -12 72 -37 146 -62 182 -14 20
-25 41 -25 47 0 14 24 23 63 23 79 0 188 67 240 147 17 26 36 51 42 55 5 4
611 8 1346 8 l1335 0 29 -30 c37 -39 73 -39 109 -1 34 36 31 63 -13 105 -33
32 -24 33 -111 -15 -34 -18 -69 -19 -1364 -19 l-1328 0 -51 -46 c-180 -161
-431 -191 -612 -72 -102 66 -213 205 -264 328 -13 30 -27 59 -32 64 -12 13
-12 56 0 56 5 0 13 -10 16 -21 10 -30 82 -133 133 -190 73 -82 201 -152 299
-166 43 -6 47 -5 35 10 -8 9 -33 25 -56 36 -94 46 -218 173 -192 198 6 6 37
-7 68 -29 14 -10 20 -9 36 5 10 9 33 17 50 17 18 0 32 4 32 8 0 12 -30 36 -62
50 -24 10 -28 18 -28 51 0 22 6 44 15 51 18 15 21 120 3 138 -19 19 -37 14
-44 -13 -3 -14 -20 -36 -36 -50 -40 -34 -120 -35 -169 -2 -34 22 -89 110 -77
122 3 4 25 -6 48 -22 97 -65 151 -81 164 -47 12 31 6 68 -16 91 -20 22 -21 26
-9 73 15 58 9 95 -21 128 -31 32 -48 28 -48 -11 0 -41 -26 -67 -66 -67 -40 0
-84 45 -84 86 0 16 -7 43 -16 59 -13 25 -15 50 -9 150 9 160 29 295 46 306 26
16 55 9 85 -22 34 -36 75 -59 105 -59 19 0 16 6 -25 50 -49 53 -82 117 -92
180 -8 47 12 136 37 169 15 18 19 41 19 96 0 73 0 73 -46 124 l-47 52 32 33
c24 25 31 41 31 71 0 21 -7 46 -15 56 -12 12 -17 45 -20 115 -5 116 -41 297
-73 374 -6 14 -13 37 -16 53 -4 15 -11 27 -17 27 -14 0 -9 -38 24 -190 13 -63
27 -161 31 -218 l7 -103 -36 -33 c-39 -36 -45 -65 -30 -138 7 -36 7 -37 -42
-61 -62 -32 -74 -57 -84 -179 -9 -112 -25 -149 -79 -183 -50 -32 -51 -45 -2
-45 21 0 42 -3 46 -7 4 -5 18 -8 29 -8 45 0 30 -38 -52 -137 -77 -93 -165
-174 -259 -240 -103 -71 -298 -158 -356 -158 -21 0 -26 6 -32 36 -4 20 -4 66
-2 102 6 86 45 165 136 279 37 47 98 124 136 171 70 89 130 203 158 302 50
180 57 254 33 403 -43 274 -153 504 -327 680 -46 46 -96 93 -112 104 -24 16
-29 27 -31 66 l-2 47 91 -6 c75 -5 100 -3 140 12 27 11 47 23 45 27 -2 4 -60
9 -129 10 l-125 2 -100 48 c-217 104 -197 99 -222 60 -27 -42 -44 -52 -91 -53
-23 0 -51 -5 -62 -12 -15 -10 -26 -10 -53 0 -19 7 -60 14 -92 17 -92 8 -98 31
-19 66 74 33 61 49 -23 29z m558 -2296 c3 -32 12 -69 20 -81 19 -31 6 -39 -76
-46 -101 -9 -105 -4 -62 86 34 72 73 112 102 103 6 -1 13 -29 16 -62z"/>
<path d="M33300 4650 c0 -7 21 -36 48 -64 98 -109 133 -212 136 -405 2 -74 7
-136 12 -138 5 -1 21 30 36 70 35 91 76 156 147 230 40 41 63 57 82 57 14 0
28 3 31 6 10 9 -3 40 -22 52 -16 10 -27 3 -84 -49 -36 -34 -78 -82 -92 -108
-49 -84 -68 -81 -71 14 -6 149 -49 259 -118 307 -46 32 -105 48 -105 28z"/>
<path d="M33937 4623 c-4 -3 -7 -15 -7 -26 0 -10 -16 -35 -35 -54 -30 -30 -40
-34 -65 -29 -29 5 -30 4 -30 -28 0 -18 7 -39 15 -46 20 -16 19 -40 0 -40 -13
0 -15 -12 -13 -67 l3 -67 39 -8 c21 -5 52 -19 68 -33 53 -45 90 -21 56 36 -12
18 -9 24 25 55 21 19 35 39 32 44 -4 6 -24 10 -46 10 -57 0 -121 35 -117 63 3
19 10 22 60 25 41 2 65 -2 83 -14 34 -22 55 -12 55 28 0 24 11 47 40 82 23 27
39 54 37 60 -5 13 -49 11 -99 -5 -33 -10 -41 -10 -56 4 -20 18 -34 21 -45 10z"/>
<path d="M1603 4143 c-24 -9 -5 -130 24 -165 20 -22 15 -32 -27 -60 -45 -31
-48 -50 -13 -100 26 -39 28 -48 30 -147 2 -136 1 -133 13 -126 6 3 10 20 10
37 0 16 6 42 14 56 8 15 28 56 44 92 37 81 97 160 153 204 61 46 144 96 159
96 8 0 21 7 31 16 13 12 43 16 131 17 l115 1 79 -39 c95 -48 147 -98 194 -185
30 -58 34 -74 35 -141 0 -66 -4 -81 -28 -117 -30 -46 -64 -58 -53 -19 19 68
24 119 16 176 -14 99 -37 113 -93 56 -19 -19 -38 -35 -42 -35 -5 0 -20 11 -34
24 -34 32 -189 109 -207 102 -19 -7 -7 -61 24 -109 14 -20 22 -41 18 -44 -4
-4 -36 -8 -71 -10 -36 -1 -74 -7 -85 -13 -32 -17 -25 -54 18 -86 30 -24 51
-30 110 -35 82 -7 115 -26 96 -57 -19 -30 -60 -25 -147 17 -91 44 -141 56
-197 46 -46 -8 -54 -24 -34 -65 21 -41 5 -60 -48 -60 -54 0 -62 -25 -18 -61
46 -38 35 -55 -41 -63 -140 -16 -327 -128 -251 -150 97 -28 197 -25 305 10 63
21 78 9 54 -41 -19 -40 -22 -75 -7 -75 5 0 24 9 42 20 47 29 66 26 76 -12 12
-49 42 -48 106 1 29 23 56 41 60 41 4 0 4 -16 0 -36 l-7 -37 39 9 c22 4 59 8
84 9 l45 0 -3 -42 c-3 -50 21 -113 42 -113 22 0 140 119 155 157 15 38 30 45
70 33 47 -13 111 -1 111 21 0 10 -11 24 -24 31 -14 7 -47 44 -74 82 -28 38
-67 82 -86 98 -20 16 -36 34 -36 38 0 5 13 16 29 24 26 14 31 14 51 -4 13 -11
27 -20 31 -20 14 0 29 37 29 73 0 19 7 54 15 77 8 24 15 76 15 119 -1 206
-116 358 -319 421 -60 18 -90 22 -162 18 -50 -2 -94 -9 -101 -16 -7 -7 -21
-12 -33 -12 -39 0 -159 -70 -215 -125 -31 -30 -61 -55 -68 -55 -7 0 -12 15
-12 40 0 62 -36 144 -80 184 -22 20 -41 36 -43 35 -1 0 -8 -3 -14 -6z m734
-643 c3 -11 12 -20 19 -20 18 0 18 -11 -1 -36 -22 -30 -18 -42 22 -62 34 -18
37 -23 39 -67 4 -53 -7 -79 -36 -95 -19 -10 -20 -8 -15 27 4 31 1 44 -19 67
l-25 30 -37 -20 c-20 -10 -58 -38 -84 -61 -26 -24 -51 -43 -54 -43 -14 0 -3
28 24 60 30 35 41 62 17 42 -7 -6 -40 -11 -74 -10 -34 0 -93 -7 -131 -17 -66
-17 -110 -16 -98 4 6 10 47 18 141 29 44 5 60 11 60 22 0 10 -12 16 -35 18
-19 2 -41 8 -48 14 -23 20 9 29 76 22 59 -6 64 -5 60 12 -2 11 -13 20 -26 22
-12 2 -22 8 -22 14 0 7 20 9 58 5 73 -8 125 6 146 38 20 30 36 32 43 5z"/>
<path d="M30265 3413 c-4 -15 -11 -38 -16 -51 -5 -13 -9 -31 -9 -41 0 -24
-134 -225 -273 -410 -133 -176 -211 -304 -204 -332 4 -14 0 -19 -14 -19 -11 0
-22 7 -25 15 -7 17 -40 20 -49 5 -3 -5 -15 -14 -25 -20 -26 -14 -50 12 -50 57
0 70 -31 134 -100 204 -61 62 -125 107 -137 95 -3 -3 13 -33 36 -66 39 -59 81
-169 81 -212 0 -10 5 -29 11 -40 6 -11 19 -104 30 -207 46 -461 117 -706 275
-948 30 -46 54 -90 54 -98 0 -13 -164 -15 -1307 -14 l-1308 2 -46 28 c-56 35
-73 36 -104 4 -35 -35 -33 -76 6 -109 39 -33 47 -33 99 5 l44 32 1337 -4 c736
-2 1341 -1 1345 3 4 4 -18 56 -48 115 -65 126 -121 292 -138 415 -17 113 -8
302 18 383 23 74 73 178 107 224 22 29 23 37 12 48 -8 8 -31 15 -53 16 -34 2
-39 6 -42 29 -2 14 6 41 17 59 11 19 28 49 37 67 28 54 192 220 283 285 202
144 387 212 576 212 100 -1 115 -3 168 -29 66 -32 82 -28 46 10 -37 40 -102
74 -171 90 -52 13 -77 13 -144 3 -60 -9 -86 -9 -102 0 -31 16 -50 14 -85 -11
-32 -23 -61 -42 -85 -54 -7 -3 -26 -19 -43 -35 -33 -31 -59 -38 -59 -15 0 18
19 33 51 41 36 9 74 91 74 159 -1 52 -30 127 -52 134 -7 2 -15 -9 -18 -25z"/>
<path d="M32865 3144 c-45 -7 -107 -35 -136 -62 -24 -21 -31 -23 -65 -13 -22
6 -77 11 -124 11 -47 0 -112 7 -143 15 -32 8 -71 15 -87 15 -16 0 -50 7 -75
16 -25 8 -63 14 -83 12 -36 -3 -36 -4 -12 -15 48 -21 197 -56 335 -78 165 -28
210 -33 243 -27 23 3 48 -3 79 -18 83 -41 224 -12 209 43 -3 14 8 26 45 50 34
21 46 34 39 41 -10 10 -171 18 -225 10z"/>
<path d="M31380 2541 c-11 -17 -52 -52 -90 -80 -38 -28 -79 -64 -91 -81 -28
-36 -43 -38 -65 -5 -15 23 -15 26 6 52 20 26 20 28 4 40 -10 7 -27 13 -38 13
-12 0 -57 9 -101 20 -100 25 -143 25 -225 1 -93 -26 -137 -52 -198 -113 -57
-57 -83 -100 -113 -187 -24 -69 -26 -222 -4 -265 8 -15 15 -37 15 -47 0 -37
65 -145 123 -205 33 -35 56 -67 53 -73 -4 -6 -31 -11 -59 -11 -39 0 -65 -7
-103 -30 -54 -31 -94 -72 -94 -98 0 -21 111 -11 164 14 38 19 39 19 50 0 6
-10 21 -31 33 -45 l22 -26 33 19 c82 47 90 49 195 49 104 0 133 9 67 22 -35 6
-58 15 -154 58 -72 32 -161 105 -212 173 -27 35 -48 67 -48 72 0 5 -7 15 -15
22 -8 7 -15 22 -15 33 0 11 -7 28 -16 38 -12 13 -16 44 -17 136 -2 106 0 123
22 168 32 65 79 134 110 162 74 64 204 108 269 91 64 -16 111 -40 118 -60 9
-28 4 -29 -51 -12 -35 11 -70 14 -117 10 -122 -11 -147 -37 -88 -93 33 -31 38
-54 14 -74 -19 -16 -104 -182 -104 -204 0 -25 60 -18 103 11 46 31 70 26 61
-11 -9 -35 4 -112 22 -130 25 -24 41 -18 79 31 31 42 35 53 35 109 0 67 15 99
45 94 32 -7 40 -33 25 -81 -7 -23 -18 -48 -23 -55 -47 -63 -73 -199 -44 -237
13 -17 18 -18 45 -7 40 17 62 8 62 -23 0 -33 17 -76 30 -76 9 0 26 16 58 55
22 26 38 2 45 -68 12 -120 104 -294 138 -260 6 6 17 42 24 80 14 72 8 136 -20
229 -8 27 -15 55 -15 62 0 17 37 15 70 -4 15 -10 35 -14 44 -11 15 6 14 12 -8
56 -28 54 -24 63 27 75 39 9 35 41 -13 101 -22 28 -40 54 -40 59 0 4 16 5 36
1 36 -6 37 -6 30 22 -4 15 -10 54 -13 85 l-5 57 53 0 c63 -1 109 14 109 36 0
20 -106 127 -158 160 -41 24 -43 28 -36 58 4 18 7 50 6 71 -4 65 -19 73 -52
27z m-136 -260 c23 11 31 10 54 -8 15 -11 28 -27 30 -36 3 -12 -4 -14 -35 -10
-32 4 -42 1 -62 -21 l-24 -26 19 -36 c10 -20 36 -56 57 -80 48 -55 44 -75 -7
-35 -21 17 -40 31 -41 31 -1 0 -1 -33 0 -73 3 -78 10 -126 27 -169 11 -29 2
-87 -11 -72 -11 14 -32 106 -35 158 -4 76 -30 76 -42 0 -10 -69 -29 -49 -29
31 0 46 -4 70 -12 72 -7 3 -15 -2 -18 -11 -3 -9 -7 -23 -10 -32 -11 -36 -19 0
-16 77 l2 80 -37 34 -37 34 26 10 c15 6 27 15 27 21 0 15 26 12 40 -5 21 -25
35 -17 58 31 18 36 25 44 36 35 10 -9 21 -8 40 0z"/>
<path d="M3264 2410 c-22 -48 -57 -196 -79 -335 -28 -167 -33 -211 -28 -238 3
-16 -4 -48 -17 -79 -40 -94 -14 -230 42 -212 14 4 25 -7 50 -46 43 -70 53 -55
53 83 0 95 -4 120 -24 167 -13 30 -31 64 -41 75 -16 18 -17 30 -9 120 9 92 17
157 37 305 4 30 14 65 20 78 7 12 12 42 10 65 -3 40 -4 41 -14 17z"/>
<path d="M4731 1211 c-113 -103 -225 -143 -414 -145 -74 -1 -126 -6 -125 -11
2 -6 25 -18 53 -27 94 -33 175 -87 257 -172 26 -26 38 -47 38 -67 0 -35 27
-39 56 -8 18 20 18 21 -57 92 -41 40 -94 85 -117 100 -60 41 -56 57 16 57 173
0 309 65 348 166 26 67 8 72 -55 15z"/>
<path d="M4746 913 c-8 -16 -35 -48 -60 -72 -43 -42 -44 -45 -29 -67 10 -15
25 -24 42 -24 14 0 46 -11 71 -24 57 -29 73 -25 64 19 -5 27 0 38 24 67 34 38
31 51 -13 62 -39 10 -55 24 -55 47 0 28 -27 23 -44 -8z"/>
<path d="M4576 738 c-18 -20 -20 -20 -31 -4 -10 14 -26 16 -76 14 l-63 -3 -8
-40 c-5 -22 -20 -51 -33 -65 -14 -15 -25 -34 -25 -44 0 -16 6 -18 47 -12 43 6
48 4 73 -26 33 -39 50 -31 50 23 0 42 18 87 44 108 13 11 19 11 31 1 21 -17
20 -113 -1 -145 -20 -31 -11 -45 28 -45 22 0 46 -12 79 -40 48 -40 79 -51 79
-27 0 7 -7 37 -16 66 -14 48 -14 55 0 76 22 34 20 44 -11 51 -60 15 -112 73
-93 104 12 20 3 30 -28 30 -16 0 -36 -9 -46 -22z"/>
</g>
</svg>
