<?xml version="1.0" standalone="no"?>
<!DOCTYPE svg PUBLIC "-//W3C//DTD SVG 20010904//EN"
 "http://www.w3.org/TR/2001/REC-SVG-20010904/DTD/svg10.dtd">
<svg version="1.0" xmlns="http://www.w3.org/2000/svg"
 width="900.000000pt" height="900.000000pt" viewBox="0 0 900.000000 900.000000"
 preserveAspectRatio="xMidYMid meet">
<metadata>
Created by potrace 1.15, written by Peter Selinger 2001-2017
</metadata>
<g transform="translate(0.000000,900.000000) scale(0.100000,-0.100000)"
fill="#000000" stroke="none">
<path d="M5775 7945 c-566 -7 -1065 -15 -1108 -19 -108 -8 -221 -40 -325 -92
-72 -37 -179 -69 -638 -194 -570 -155 -992 -290 -1110 -355 -33 -19 -87 -54
-120 -77 -32 -24 -180 -110 -329 -191 -148 -81 -277 -152 -285 -157 -8 -5 -53
-31 -99 -56 -93 -52 -212 -143 -257 -196 -16 -19 -163 -135 -326 -257 -389
-291 -468 -375 -547 -581 -110 -285 -64 -596 127 -863 32 -45 112 -161 177
-257 168 -249 848 -1254 1115 -1647 124 -183 282 -417 352 -520 443 -658 654
-966 697 -1019 54 -66 164 -154 251 -201 178 -95 402 -126 609 -83 161 33 250
85 648 380 l352 260 541 102 c450 85 543 100 550 88 7 -11 91 -16 442 -26 683
-20 808 -19 903 6 324 84 578 350 668 700 21 80 22 105 20 410 -4 881 -44
3891 -53 4001 -18 240 -103 428 -267 593 -113 113 -233 185 -390 232 -83 25
-101 27 -328 29 -132 2 -703 -3 -1270 -10z m1525 -373 c184 -64 309 -194 355
-369 17 -63 18 -134 50 -2618 21 -1693 21 -1715 -4 -1796 -54 -171 -210 -317
-381 -357 -54 -13 -357 -20 -1090 -27 -300 -3 -754 -8 -1010 -11 -516 -7 -536
-6 -659 53 -131 62 -238 194 -276 339 -13 50 -18 226 -30 1114 -34 2546 -40
3187 -26 3252 41 198 213 369 411 407 31 6 297 13 615 17 308 4 828 10 1155
14 722 10 816 8 890 -18z m-3426 -339 c-16 -36 -15 -540 5 -2073 12 -866 21
-1606 20 -1645 -1 -96 -2 -95 -114 550 -53 303 -111 638 -130 745 -248 1412
-318 1832 -319 1905 0 219 139 416 344 490 41 15 156 42 189 44 9 1 11 -4 5
-16z m-837 -187 c-51 -133 -75 -303 -60 -421 6 -44 77 -458 157 -920 81 -462
167 -957 192 -1100 25 -143 69 -399 99 -570 43 -245 156 -901 244 -1419 6 -33
9 -61 7 -63 -6 -6 -42 109 -285 902 -126 413 -347 1135 -491 1605 -385 1256
-399 1304 -409 1375 -20 139 27 294 121 404 44 52 355 218 412 220 11 1 16 -4
13 -13z m-910 -569 c1 -63 9 -131 22 -177 10 -41 121 -408 246 -815 411 -1340
883 -2884 915 -2993 12 -41 20 -76 17 -78 -2 -2 -119 233 -260 524 -141 290
-382 788 -537 1107 -155 319 -414 852 -575 1185 -162 333 -299 628 -305 655
-27 120 -10 257 45 365 29 56 47 73 215 197 132 98 185 132 205 133 6 0 11
-42 12 -103z m-843 -584 c4 -38 20 -106 36 -153 16 -47 195 -427 398 -845
1010 -2079 1252 -2579 1252 -2591 0 -14 -181 251 -1325 1941 -301 446 -568
838 -592 873 -96 136 -132 265 -113 402 23 164 95 275 255 394 33 25 65 45 71
45 7 1 14 -27 18 -66z"/>
<path d="M6120 6050 l0 -290 75 0 75 0 0 290 0 290 -75 0 -75 0 0 -290z"/>
<path d="M6360 6285 l0 -56 78 3 77 3 3 53 3 52 -80 0 -81 0 0 -55z"/>
<path d="M7010 6050 l0 -290 75 0 75 0 0 135 c0 122 2 137 20 155 26 26 62 25
86 -1 16 -18 19 -40 22 -155 l4 -134 75 0 75 0 -4 168 c-3 137 -6 173 -21 200
-45 83 -159 97 -234 29 l-23 -20 0 101 0 102 -75 0 -75 0 0 -290z"/>
<path d="M4550 6040 l0 -280 225 0 225 0 0 65 0 65 -150 0 -150 0 0 45 0 44
133 3 132 3 3 58 3 57 -136 0 -135 0 0 45 0 45 145 0 145 0 0 65 0 65 -220 0
-220 0 0 -280z"/>
<path d="M5290 6189 c-14 -6 -35 -20 -47 -31 l-23 -21 0 26 c0 27 0 27 -75 27
l-75 0 0 -215 0 -215 75 0 75 0 0 135 c0 122 2 137 20 155 26 26 62 25 86 -1
16 -18 19 -40 22 -155 l4 -134 75 0 75 0 -4 168 c-4 186 -12 216 -71 252 -34
21 -96 25 -137 9z"/>
<path d="M5675 6186 c-119 -53 -151 -221 -62 -323 62 -71 151 -84 230 -33 52
33 58 26 33 -34 -8 -20 -25 -37 -45 -46 -40 -16 -136 -9 -180 14 l-31 17 -20
-46 c-11 -26 -20 -50 -20 -54 0 -5 26 -17 58 -27 83 -28 232 -26 287 3 95 50
105 83 105 333 l0 200 -75 0 c-69 0 -75 -2 -75 -20 0 -20 -1 -20 -43 5 -49 28
-113 33 -162 11z m174 -116 c31 -16 46 -65 31 -100 -36 -87 -170 -65 -170 27
0 65 79 106 139 73z"/>
<path d="M6675 6186 c-52 -23 -85 -71 -85 -125 0 -76 37 -109 163 -145 45 -13
58 -21 55 -34 -5 -26 -77 -28 -134 -3 -26 12 -48 21 -50 21 -5 0 -54 -78 -54
-85 0 -4 26 -18 58 -33 74 -34 198 -38 248 -8 43 26 67 71 67 124 0 39 -5 50
-35 77 -20 19 -63 42 -104 55 -84 27 -93 35 -71 57 15 15 21 15 69 1 29 -8 61
-19 70 -23 14 -5 22 3 40 40 26 53 24 56 -56 80 -61 18 -141 19 -181 1z"/>
<path d="M6360 5975 l0 -215 75 0 75 0 0 215 0 215 -75 0 -75 0 0 -215z"/>
<path d="M6610 4609 l0 -101 -31 26 c-82 69 -208 36 -263 -69 -43 -84 -30
-213 30 -285 55 -64 163 -76 229 -25 l35 26 0 -25 c0 -26 1 -26 75 -26 l75 0
0 290 0 290 -75 0 -75 0 0 -101z m-22 -195 c32 -36 31 -106 -3 -139 -57 -57
-145 -16 -145 67 0 96 88 139 148 72z"/>
<path d="M5105 4691 c-93 -24 -172 -97 -201 -184 -22 -66 -15 -176 14 -233 87
-170 330 -204 465 -66 l37 38 -58 41 -58 41 -31 -29 c-59 -52 -133 -51 -189 5
-58 58 -58 154 0 212 54 54 127 57 186 8 34 -29 37 -28 108 33 l34 28 -21 27
c-49 61 -197 103 -286 79z"/>
<path d="M5562 4556 c-29 -7 -55 -16 -58 -19 -3 -2 1 -27 9 -53 10 -32 19 -48
28 -45 8 2 45 6 82 9 76 5 107 -11 107 -54 0 -21 -3 -22 -32 -13 -150 43 -276
-60 -224 -184 30 -73 157 -100 227 -48 29 21 29 21 29 1 0 -18 6 -20 75 -20
l75 0 0 153 c0 184 -12 222 -82 258 -53 27 -160 34 -236 15z"/>
<path d="M6184 4556 c-17 -8 -40 -29 -52 -47 l-22 -34 0 43 0 42 -75 0 -75 0
0 -215 0 -215 74 0 74 0 4 103 c3 75 8 109 21 128 20 29 56 49 92 49 24 0 25
2 25 80 0 89 -4 93 -66 66z"/>
<path d="M6910 4548 c-56 -28 -83 -76 -76 -132 7 -56 46 -90 141 -123 95 -33
107 -56 33 -61 -32 -2 -63 4 -94 18 -26 11 -48 19 -49 18 -1 -2 -14 -21 -28
-42 -24 -37 -25 -40 -9 -53 9 -7 48 -22 86 -34 158 -49 283 12 273 134 -6 65
-32 90 -129 123 -78 26 -104 48 -77 65 16 10 69 2 116 -17 35 -15 39 -13 68
45 20 39 17 43 -59 66 -72 22 -143 19 -196 -7z"/>
</g>
</svg>
